M48
; DRILL file {KiCad (6.0.1)} date Sun Jan 30 10:53:25 2022
; FORMAT={-:-/ absolute / inch / decimal}
; #@! TF.CreationDate,2022-01-30T10:53:25+01:00
; #@! TF.GenerationSoftware,Kicad,Pcbnew,(6.0.1)
; #@! TF.FileFunction,Plated,1,2,PTH
FMAT,2
INCH
; #@! TA.AperFunction,Plated,PTH,ComponentDrill
T1C0.0276
; #@! TA.AperFunction,Plated,PTH,ComponentDrill
T2C0.0315
; #@! TA.AperFunction,Plated,PTH,ComponentDrill
T3C0.0354
; #@! TA.AperFunction,Plated,PTH,ComponentDrill
T4C0.0394
; #@! TA.AperFunction,Plated,PTH,ComponentDrill
T5C0.0402
; #@! TA.AperFunction,Plated,PTH,ComponentDrill
T6C0.0469
; #@! TA.AperFunction,Plated,PTH,ComponentDrill
T7C0.0472
%
G90
G05
T1
X4.925Y-4.925
X5.125Y-4.925
X6.71Y-2.99
X6.91Y-2.99
T2
X3.825Y-2.68
X3.825Y-2.78
X3.825Y-2.88
X3.825Y-2.98
X3.825Y-3.08
X3.825Y-3.18
X3.825Y-3.28
X3.825Y-3.38
X3.825Y-3.48
X3.825Y-3.58
X3.825Y-3.95
X3.825Y-4.05
X3.825Y-4.15
X3.825Y-4.25
X3.825Y-4.35
X3.825Y-4.45
X3.825Y-4.55
X3.825Y-4.65
X3.825Y-4.75
X3.825Y-4.85
X3.9008Y-3.825
X3.925Y-2.54
X3.9992Y-3.825
X4.0234Y-2.54
X4.125Y-2.68
X4.125Y-2.78
X4.125Y-2.88
X4.125Y-2.98
X4.125Y-3.08
X4.125Y-3.18
X4.125Y-3.28
X4.125Y-3.38
X4.125Y-3.48
X4.125Y-3.58
X4.125Y-3.95
X4.125Y-4.05
X4.125Y-4.15
X4.125Y-4.25
X4.125Y-4.35
X4.125Y-4.45
X4.125Y-4.55
X4.125Y-4.65
X4.125Y-4.75
X4.125Y-4.85
X6.4487Y-3.7111
X6.4487Y-3.8111
X6.4487Y-3.9111
X6.4487Y-4.0111
X6.7487Y-3.7111
X6.7487Y-3.8111
X6.7487Y-3.9111
X6.7487Y-4.0111
X6.8993Y-3.8107
X6.8993Y-3.9092
T3
X4.9252Y-4.75
X5.0252Y-4.75
T4
X3.2902Y-2.9402
X3.2902Y-3.0402
X3.2902Y-3.1402
X3.2902Y-3.2402
X3.2902Y-3.3402
X3.2902Y-3.4402
X3.2902Y-3.5402
X3.2902Y-3.6402
X3.2902Y-3.7402
X3.2902Y-3.8402
X3.2902Y-3.9402
X3.2902Y-4.0402
X3.2902Y-4.1402
X3.2902Y-4.2402
X3.2902Y-4.3402
X3.2902Y-4.4402
X3.2902Y-4.5402
X3.3902Y-2.9402
X3.3902Y-3.0402
X3.3902Y-3.1402
X3.3902Y-3.2402
X3.3902Y-3.3402
X3.3902Y-3.4402
X3.3902Y-3.5402
X3.3902Y-3.6402
X3.3902Y-3.7402
X3.3902Y-3.8402
X3.3902Y-3.9402
X3.3902Y-4.0402
X3.3902Y-4.1402
X3.3902Y-4.2402
X3.3902Y-4.3402
X3.3902Y-4.4402
X3.3902Y-4.5402
X5.6248Y-3.65
X5.6248Y-4.3
X5.625Y-3.0
X5.625Y-4.95
X5.7248Y-3.65
X5.7248Y-4.3
X5.725Y-3.0
X5.725Y-4.95
X6.0002Y-3.55
X6.025Y-4.85
X6.0252Y-2.9
X6.026Y-4.2
X6.1002Y-3.55
X6.125Y-4.85
X6.1252Y-2.9
X6.126Y-4.2
X6.73Y-3.5
X6.83Y-3.5
T5
X4.45Y-2.59
X4.45Y-2.69
X4.45Y-2.79
X4.45Y-2.89
X4.45Y-2.99
X4.45Y-3.09
X4.45Y-3.19
X4.45Y-3.29
X4.45Y-3.39
X4.45Y-3.49
X4.45Y-3.59
X4.45Y-3.69
X4.45Y-3.79
X4.45Y-3.89
X4.45Y-3.99
X4.45Y-4.09
X4.45Y-4.19
X4.45Y-4.29
X4.45Y-4.39
X4.45Y-4.49
X4.7Y-4.4809
X4.8Y-4.4809
X4.9Y-4.4809
X5.15Y-2.59
X5.15Y-2.69
X5.15Y-2.79
X5.15Y-2.89
X5.15Y-2.99
X5.15Y-3.09
X5.15Y-3.19
X5.15Y-3.29
X5.15Y-3.39
X5.15Y-3.49
X5.15Y-3.59
X5.15Y-3.69
X5.15Y-3.79
X5.15Y-3.89
X5.15Y-3.99
X5.15Y-4.09
X5.15Y-4.19
X5.15Y-4.29
X5.15Y-4.39
X5.15Y-4.49
T6
X5.6758Y-2.525
X5.6758Y-2.625
X5.6758Y-2.725
X5.6758Y-2.825
X5.6758Y-3.175
X5.6758Y-3.275
X5.6758Y-3.375
X5.6758Y-3.475
X5.6758Y-3.825
X5.6758Y-3.925
X5.6758Y-4.025
X5.6758Y-4.125
X5.6758Y-4.475
X5.6758Y-4.575
X5.6758Y-4.675
X5.6758Y-4.775
X6.075Y-2.525
X6.075Y-2.625
X6.075Y-2.725
X6.0758Y-3.175
X6.0758Y-3.275
X6.0758Y-3.375
X6.0758Y-3.825
X6.0758Y-3.925
X6.0758Y-4.025
X6.0758Y-4.475
X6.0758Y-4.575
X6.0758Y-4.675
X6.4493Y-4.31
X6.5493Y-4.31
X6.6493Y-4.31
X6.7493Y-4.31
T7
X4.5372Y-4.825
X4.675Y-4.825
X6.4426Y-3.2261
X6.5804Y-3.2261
X6.7182Y-3.2261
X6.856Y-3.2261
T0
M30
