%TF.GenerationSoftware,KiCad,Pcbnew,(6.0.1)*%
%TF.CreationDate,2022-01-29T17:05:37+01:00*%
%TF.ProjectId,wpcpowermon,77706370-6f77-4657-926d-6f6e2e6b6963,rev?*%
%TF.SameCoordinates,Original*%
%TF.FileFunction,Soldermask,Bot*%
%TF.FilePolarity,Negative*%
%FSLAX46Y46*%
G04 Gerber Fmt 4.6, Leading zero omitted, Abs format (unit mm)*
G04 Created by KiCad (PCBNEW (6.0.1)) date 2022-01-29 17:05:37*
%MOMM*%
%LPD*%
G01*
G04 APERTURE LIST*
G04 Aperture macros list*
%AMRoundRect*
0 Rectangle with rounded corners*
0 $1 Rounding radius*
0 $2 $3 $4 $5 $6 $7 $8 $9 X,Y pos of 4 corners*
0 Add a 4 corners polygon primitive as box body*
4,1,4,$2,$3,$4,$5,$6,$7,$8,$9,$2,$3,0*
0 Add four circle primitives for the rounded corners*
1,1,$1+$1,$2,$3*
1,1,$1+$1,$4,$5*
1,1,$1+$1,$6,$7*
1,1,$1+$1,$8,$9*
0 Add four rect primitives between the rounded corners*
20,1,$1+$1,$2,$3,$4,$5,0*
20,1,$1+$1,$4,$5,$6,$7,0*
20,1,$1+$1,$6,$7,$8,$9,0*
20,1,$1+$1,$8,$9,$2,$3,0*%
G04 Aperture macros list end*
%ADD10C,1.600000*%
%ADD11R,1.700000X1.700000*%
%ADD12O,1.700000X1.700000*%
%ADD13R,2.400000X1.600000*%
%ADD14O,2.400000X1.600000*%
%ADD15C,4.300000*%
%ADD16R,2.400000X2.400000*%
%ADD17C,2.400000*%
%ADD18RoundRect,0.250000X0.845000X-0.620000X0.845000X0.620000X-0.845000X0.620000X-0.845000X-0.620000X0*%
%ADD19O,2.190000X1.740000*%
%ADD20R,1.800000X1.800000*%
%ADD21C,1.800000*%
%ADD22C,1.400000*%
%ADD23O,1.400000X1.400000*%
%ADD24RoundRect,0.250000X0.620000X0.845000X-0.620000X0.845000X-0.620000X-0.845000X0.620000X-0.845000X0*%
%ADD25O,1.740000X2.190000*%
%ADD26O,1.500000X1.500000*%
%ADD27O,1.800000X1.800000*%
G04 APERTURE END LIST*
D10*
%TO.C,C3*%
X175241264Y-96792735D03*
X175241264Y-99292735D03*
%TD*%
D11*
%TO.C,JP1*%
X170942000Y-88900000D03*
D12*
X173482000Y-88900000D03*
%TD*%
D13*
%TO.C,U3*%
X97155000Y-100330000D03*
D14*
X97155000Y-102870000D03*
X97155000Y-105410000D03*
X97155000Y-107950000D03*
X97155000Y-110490000D03*
X97155000Y-113030000D03*
X97155000Y-115570000D03*
X97155000Y-118110000D03*
X97155000Y-120650000D03*
X97155000Y-123190000D03*
X104775000Y-123190000D03*
X104775000Y-120650000D03*
X104775000Y-118110000D03*
X104775000Y-115570000D03*
X104775000Y-113030000D03*
X104775000Y-110490000D03*
X104775000Y-107950000D03*
X104775000Y-105410000D03*
X104775000Y-102870000D03*
X104775000Y-100330000D03*
%TD*%
D15*
%TO.C,REF\u002A\u002A*%
X84836000Y-66040000D03*
%TD*%
D16*
%TO.C,J12*%
X163641262Y-81942000D03*
D17*
X167141262Y-81942000D03*
X170641262Y-81942000D03*
X174141262Y-81942000D03*
%TD*%
D18*
%TO.C,J8*%
X154305000Y-69215000D03*
D19*
X154305000Y-66675000D03*
X154305000Y-64135000D03*
%TD*%
D18*
%TO.C,J10*%
X154325000Y-102235000D03*
D19*
X154325000Y-99695000D03*
X154325000Y-97155000D03*
%TD*%
D11*
%TO.C,JP3*%
X142875000Y-125730000D03*
D12*
X145415000Y-125730000D03*
%TD*%
D15*
%TO.C,REF\u002A\u002A*%
X174244000Y-66040000D03*
%TD*%
D11*
%TO.C,JP9*%
X142875000Y-76200000D03*
D12*
X145415000Y-76200000D03*
%TD*%
D10*
%TO.C,C1*%
X99695000Y-64516000D03*
X102195000Y-64516000D03*
%TD*%
D13*
%TO.C,U1*%
X163796264Y-94262735D03*
D14*
X163796264Y-96802735D03*
X163796264Y-99342735D03*
X163796264Y-101882735D03*
X171416264Y-101882735D03*
X171416264Y-99342735D03*
X171416264Y-96802735D03*
X171416264Y-94262735D03*
%TD*%
D13*
%TO.C,U4*%
X97155000Y-68072000D03*
D14*
X97155000Y-70612000D03*
X97155000Y-73152000D03*
X97155000Y-75692000D03*
X97155000Y-78232000D03*
X97155000Y-80772000D03*
X97155000Y-83312000D03*
X97155000Y-85852000D03*
X97155000Y-88392000D03*
X97155000Y-90932000D03*
X104775000Y-90932000D03*
X104775000Y-88392000D03*
X104775000Y-85852000D03*
X104775000Y-83312000D03*
X104775000Y-80772000D03*
X104775000Y-78232000D03*
X104775000Y-75692000D03*
X104775000Y-73152000D03*
X104775000Y-70612000D03*
X104775000Y-68072000D03*
%TD*%
D20*
%TO.C,D1*%
X127640000Y-120650000D03*
D21*
X125100000Y-120650000D03*
%TD*%
D11*
%TO.C,J1001*%
X86111000Y-115321000D03*
D12*
X83571000Y-115321000D03*
X86111000Y-112781000D03*
X83571000Y-112781000D03*
X86111000Y-110241000D03*
X83571000Y-110241000D03*
X86111000Y-107701000D03*
X83571000Y-107701000D03*
X86111000Y-105161000D03*
X83571000Y-105161000D03*
X86111000Y-102621000D03*
X83571000Y-102621000D03*
X86111000Y-100081000D03*
X83571000Y-100081000D03*
X86111000Y-97541000D03*
X83571000Y-97541000D03*
X86111000Y-95001000D03*
X83571000Y-95001000D03*
X86111000Y-92461000D03*
X83571000Y-92461000D03*
X86111000Y-89921000D03*
X83571000Y-89921000D03*
X86111000Y-87381000D03*
X83571000Y-87381000D03*
X86111000Y-84841000D03*
X83571000Y-84841000D03*
X86111000Y-82301000D03*
X83571000Y-82301000D03*
X86111000Y-79761000D03*
X83571000Y-79761000D03*
X86111000Y-77221000D03*
X83571000Y-77221000D03*
X86111000Y-74681000D03*
X83571000Y-74681000D03*
%TD*%
D10*
%TO.C,C2*%
X99080000Y-97155000D03*
X101580000Y-97155000D03*
%TD*%
D16*
%TO.C,J4*%
X118745000Y-122555000D03*
D17*
X115245000Y-122555000D03*
%TD*%
D11*
%TO.C,JP4*%
X155600000Y-106680000D03*
D12*
X153060000Y-106680000D03*
%TD*%
D11*
%TO.C,JP6*%
X154945000Y-90170000D03*
D12*
X152405000Y-90170000D03*
%TD*%
D15*
%TO.C,REF\u002A\u002A*%
X174244000Y-123444000D03*
%TD*%
D22*
%TO.C,R1*%
X170434000Y-75946000D03*
D23*
X175514000Y-75946000D03*
%TD*%
D11*
%TO.C,JP5*%
X142870000Y-109220000D03*
D12*
X145410000Y-109220000D03*
%TD*%
D18*
%TO.C,J7*%
X144165000Y-121285000D03*
D19*
X144165000Y-118745000D03*
X144165000Y-116205000D03*
X144165000Y-113665000D03*
%TD*%
D18*
%TO.C,J5*%
X144165000Y-88265000D03*
D19*
X144165000Y-85725000D03*
X144165000Y-83185000D03*
X144165000Y-80645000D03*
%TD*%
D18*
%TO.C,J11*%
X154325000Y-118745000D03*
D19*
X154325000Y-116205000D03*
X154325000Y-113665000D03*
%TD*%
D11*
%TO.C,JP2*%
X155575000Y-123190000D03*
D12*
X153035000Y-123190000D03*
%TD*%
D15*
%TO.C,REF\u002A\u002A*%
X84836000Y-123444000D03*
%TD*%
D18*
%TO.C,J3*%
X144165000Y-71755000D03*
D19*
X144165000Y-69215000D03*
X144165000Y-66675000D03*
X144165000Y-64135000D03*
%TD*%
D24*
%TO.C,J1*%
X171431264Y-109472735D03*
D25*
X168891264Y-109472735D03*
X166351264Y-109472735D03*
X163811264Y-109472735D03*
%TD*%
D26*
%TO.C,U5*%
X124345000Y-68946000D03*
D27*
X124645000Y-65916000D03*
D26*
X119495000Y-68946000D03*
D27*
X119195000Y-65916000D03*
D12*
X113030000Y-65786000D03*
X113030000Y-68326000D03*
D11*
X113030000Y-70866000D03*
D12*
X113030000Y-73406000D03*
X113030000Y-75946000D03*
X113030000Y-78486000D03*
X113030000Y-81026000D03*
D11*
X113030000Y-83566000D03*
D12*
X113030000Y-86106000D03*
X113030000Y-88646000D03*
X113030000Y-91186000D03*
X113030000Y-93726000D03*
D11*
X113030000Y-96266000D03*
D12*
X113030000Y-98806000D03*
X113030000Y-101346000D03*
X113030000Y-103886000D03*
X113030000Y-106426000D03*
D11*
X113030000Y-108966000D03*
D12*
X113030000Y-111506000D03*
X113030000Y-114046000D03*
X130810000Y-114046000D03*
X130810000Y-111506000D03*
D11*
X130810000Y-108966000D03*
D12*
X130810000Y-106426000D03*
X130810000Y-103886000D03*
X130810000Y-101346000D03*
X130810000Y-98806000D03*
D11*
X130810000Y-96266000D03*
D12*
X130810000Y-93726000D03*
X130810000Y-91186000D03*
X130810000Y-88646000D03*
X130810000Y-86106000D03*
D11*
X130810000Y-83566000D03*
D12*
X130810000Y-81026000D03*
X130810000Y-78486000D03*
X130810000Y-75946000D03*
X130810000Y-73406000D03*
D11*
X130810000Y-70866000D03*
D12*
X130810000Y-68326000D03*
X130810000Y-65786000D03*
X119380000Y-113816000D03*
D11*
X121920000Y-113816000D03*
D12*
X124460000Y-113816000D03*
%TD*%
D11*
%TO.C,JP7*%
X142870000Y-92710000D03*
D12*
X145410000Y-92710000D03*
%TD*%
D18*
%TO.C,J9*%
X154325000Y-85725000D03*
D19*
X154325000Y-83185000D03*
X154325000Y-80645000D03*
%TD*%
D11*
%TO.C,JP8*%
X155580000Y-73660000D03*
D12*
X153040000Y-73660000D03*
%TD*%
D18*
%TO.C,J6*%
X144165000Y-104775000D03*
D19*
X144165000Y-102235000D03*
X144165000Y-99695000D03*
X144165000Y-97155000D03*
%TD*%
D22*
%TO.C,R2*%
X125095000Y-125095000D03*
D23*
X130175000Y-125095000D03*
%TD*%
M02*
