M48
; DRILL file {KiCad (5.99.0-13096-g792a8dca9d)} date Sun Nov  7 07:43:53 2021
; FORMAT={-:-/ absolute / inch / decimal}
; #@! TF.CreationDate,2021-11-07T07:43:53+01:00
; #@! TF.GenerationSoftware,Kicad,Pcbnew,(5.99.0-13096-g792a8dca9d)
; #@! TF.FileFunction,Plated,1,2,PTH
FMAT,2
INCH
; #@! TA.AperFunction,Plated,PTH,ComponentDrill
T1C0.0276
; #@! TA.AperFunction,Plated,PTH,ComponentDrill
T2C0.0315
; #@! TA.AperFunction,Plated,PTH,ComponentDrill
T3C0.0354
; #@! TA.AperFunction,Plated,PTH,ComponentDrill
T4C0.0394
; #@! TA.AperFunction,Plated,PTH,ComponentDrill
T5C0.0402
; #@! TA.AperFunction,Plated,PTH,ComponentDrill
T6C0.0429
; #@! TA.AperFunction,Plated,PTH,ComponentDrill
T7C0.0472
%
G90
G05
T1
X5.38Y-3.9
X5.58Y-3.9
X5.72Y-3.9
X5.92Y-3.9
T2
X3.825Y-2.68
X3.825Y-2.78
X3.825Y-2.88
X3.825Y-2.98
X3.825Y-3.08
X3.825Y-3.18
X3.825Y-3.28
X3.825Y-3.38
X3.825Y-3.48
X3.825Y-3.58
X3.825Y-3.95
X3.825Y-4.05
X3.825Y-4.15
X3.825Y-4.25
X3.825Y-4.35
X3.825Y-4.45
X3.825Y-4.55
X3.825Y-4.65
X3.825Y-4.75
X3.825Y-4.85
X3.9008Y-3.825
X3.925Y-2.54
X3.9992Y-3.825
X4.0234Y-2.54
X4.125Y-2.68
X4.125Y-2.78
X4.125Y-2.88
X4.125Y-2.98
X4.125Y-3.08
X4.125Y-3.18
X4.125Y-3.28
X4.125Y-3.38
X4.125Y-3.48
X4.125Y-3.58
X4.125Y-3.95
X4.125Y-4.05
X4.125Y-4.15
X4.125Y-4.25
X4.125Y-4.35
X4.125Y-4.45
X4.125Y-4.55
X4.125Y-4.65
X4.125Y-4.75
X4.125Y-4.85
X5.4094Y-4.4104
X5.4094Y-4.5104
X5.4094Y-4.6104
X5.4094Y-4.7104
X5.7094Y-4.4104
X5.7094Y-4.5104
X5.7094Y-4.6104
X5.7094Y-4.7104
X5.86Y-4.4508
X5.86Y-4.5492
T3
X5.4302Y-3.74
X5.5302Y-3.74
T4
X3.3002Y-3.0002
X3.3002Y-3.1002
X3.3002Y-3.2002
X3.3002Y-3.3002
X3.3002Y-3.4002
X3.3002Y-3.5002
X3.3002Y-3.6002
X3.3002Y-3.7002
X3.3002Y-3.8002
X3.3002Y-3.9002
X3.3002Y-4.0002
X3.3002Y-4.1002
X3.3002Y-4.2002
X3.3002Y-4.3002
X3.3002Y-4.4002
X3.3002Y-4.5002
X3.3002Y-4.6002
X3.4002Y-3.0002
X3.4002Y-3.1002
X3.4002Y-3.2002
X3.4002Y-3.3002
X3.4002Y-3.4002
X3.4002Y-3.5002
X3.4002Y-3.6002
X3.4002Y-3.7002
X3.4002Y-3.8002
X3.4002Y-3.9002
X3.4002Y-4.0002
X3.4002Y-4.1002
X3.4002Y-4.2002
X3.4002Y-4.3002
X3.4002Y-4.4002
X3.4002Y-4.5002
X3.4002Y-4.6002
X5.42Y-4.12
X5.42Y-4.22
T5
X4.45Y-2.59
X4.45Y-2.69
X4.45Y-2.79
X4.45Y-2.89
X4.45Y-2.99
X4.45Y-3.09
X4.45Y-3.19
X4.45Y-3.29
X4.45Y-3.39
X4.45Y-3.49
X4.45Y-3.59
X4.45Y-3.69
X4.45Y-3.79
X4.45Y-3.89
X4.45Y-3.99
X4.45Y-4.09
X4.45Y-4.19
X4.45Y-4.29
X4.45Y-4.39
X4.45Y-4.49
X4.7Y-4.4809
X4.8Y-4.4809
X4.9Y-4.4809
X5.15Y-2.59
X5.15Y-2.69
X5.15Y-2.79
X5.15Y-2.89
X5.15Y-2.99
X5.15Y-3.09
X5.15Y-3.19
X5.15Y-3.29
X5.15Y-3.39
X5.15Y-3.49
X5.15Y-3.59
X5.15Y-3.69
X5.15Y-3.79
X5.15Y-3.89
X5.15Y-3.99
X5.15Y-4.09
X5.15Y-4.19
X5.15Y-4.29
X5.15Y-4.39
X5.15Y-4.49
T6
X5.64Y-2.65
X5.64Y-2.75
X5.64Y-2.85
X5.64Y-2.95
X5.64Y-3.22
X5.64Y-3.32
X5.64Y-3.42
X5.64Y-3.52
T7
X4.7311Y-4.8039
X4.8689Y-4.8039
X5.7639Y-4.0711
X5.7639Y-4.2089
T0
M30
