%TF.GenerationSoftware,KiCad,Pcbnew,(5.99.0-13096-g792a8dca9d)*%
%TF.CreationDate,2021-11-07T07:43:55+01:00*%
%TF.ProjectId,wpcpowermon,77706370-6f77-4657-926d-6f6e2e6b6963,rev?*%
%TF.SameCoordinates,Original*%
%TF.FileFunction,Legend,Top*%
%TF.FilePolarity,Positive*%
%FSLAX46Y46*%
G04 Gerber Fmt 4.6, Leading zero omitted, Abs format (unit mm)*
G04 Created by KiCad (PCBNEW (5.99.0-13096-g792a8dca9d)) date 2021-11-07 07:43:55*
%MOMM*%
%LPD*%
G01*
G04 APERTURE LIST*
%ADD10C,0.300000*%
%ADD11C,0.150000*%
%ADD12C,0.120000*%
G04 APERTURE END LIST*
D10*
X117920000Y-127107142D02*
X119062857Y-127107142D01*
X121634285Y-126178571D02*
X120920000Y-126178571D01*
X120848571Y-126892857D01*
X120920000Y-126821428D01*
X121062857Y-126750000D01*
X121420000Y-126750000D01*
X121562857Y-126821428D01*
X121634285Y-126892857D01*
X121705714Y-127035714D01*
X121705714Y-127392857D01*
X121634285Y-127535714D01*
X121562857Y-127607142D01*
X121420000Y-127678571D01*
X121062857Y-127678571D01*
X120920000Y-127607142D01*
X120848571Y-127535714D01*
X122134285Y-126178571D02*
X122634285Y-127678571D01*
X123134285Y-126178571D01*
X124777142Y-127107142D02*
X125920000Y-127107142D01*
X125348571Y-127678571D02*
X125348571Y-126535714D01*
D11*
X89185714Y-117292380D02*
X88614285Y-117292380D01*
X88900000Y-117292380D02*
X88900000Y-116292380D01*
X88804761Y-116435238D01*
X88709523Y-116530476D01*
X88614285Y-116578095D01*
X150539380Y-86970285D02*
X151539380Y-86732190D01*
X150825095Y-86541714D01*
X151539380Y-86351238D01*
X150539380Y-86113142D01*
X151539380Y-85732190D02*
X150539380Y-85732190D01*
X150539380Y-85351238D01*
X150587000Y-85256000D01*
X150634619Y-85208380D01*
X150729857Y-85160761D01*
X150872714Y-85160761D01*
X150967952Y-85208380D01*
X151015571Y-85256000D01*
X151063190Y-85351238D01*
X151063190Y-85732190D01*
X151444142Y-84160761D02*
X151491761Y-84208380D01*
X151539380Y-84351238D01*
X151539380Y-84446476D01*
X151491761Y-84589333D01*
X151396523Y-84684571D01*
X151301285Y-84732190D01*
X151110809Y-84779809D01*
X150967952Y-84779809D01*
X150777476Y-84732190D01*
X150682238Y-84684571D01*
X150587000Y-84589333D01*
X150539380Y-84446476D01*
X150539380Y-84351238D01*
X150587000Y-84208380D01*
X150634619Y-84160761D01*
X151539380Y-82970285D02*
X150539380Y-82970285D01*
X150539380Y-82589333D01*
X150587000Y-82494095D01*
X150634619Y-82446476D01*
X150729857Y-82398857D01*
X150872714Y-82398857D01*
X150967952Y-82446476D01*
X151015571Y-82494095D01*
X151063190Y-82589333D01*
X151063190Y-82970285D01*
X151539380Y-81827428D02*
X151491761Y-81922666D01*
X151444142Y-81970285D01*
X151348904Y-82017904D01*
X151063190Y-82017904D01*
X150967952Y-81970285D01*
X150920333Y-81922666D01*
X150872714Y-81827428D01*
X150872714Y-81684571D01*
X150920333Y-81589333D01*
X150967952Y-81541714D01*
X151063190Y-81494095D01*
X151348904Y-81494095D01*
X151444142Y-81541714D01*
X151491761Y-81589333D01*
X151539380Y-81684571D01*
X151539380Y-81827428D01*
X150872714Y-81160761D02*
X151539380Y-80970285D01*
X151063190Y-80779809D01*
X151539380Y-80589333D01*
X150872714Y-80398857D01*
X151491761Y-79636952D02*
X151539380Y-79732190D01*
X151539380Y-79922666D01*
X151491761Y-80017904D01*
X151396523Y-80065523D01*
X151015571Y-80065523D01*
X150920333Y-80017904D01*
X150872714Y-79922666D01*
X150872714Y-79732190D01*
X150920333Y-79636952D01*
X151015571Y-79589333D01*
X151110809Y-79589333D01*
X151206047Y-80065523D01*
X151539380Y-79160761D02*
X150872714Y-79160761D01*
X151063190Y-79160761D02*
X150967952Y-79113142D01*
X150920333Y-79065523D01*
X150872714Y-78970285D01*
X150872714Y-78875047D01*
X151539380Y-78541714D02*
X150539380Y-78541714D01*
X151253666Y-78208380D01*
X150539380Y-77875047D01*
X151539380Y-77875047D01*
X150539380Y-77208380D02*
X150539380Y-77017904D01*
X150587000Y-76922666D01*
X150682238Y-76827428D01*
X150872714Y-76779809D01*
X151206047Y-76779809D01*
X151396523Y-76827428D01*
X151491761Y-76922666D01*
X151539380Y-77017904D01*
X151539380Y-77208380D01*
X151491761Y-77303619D01*
X151396523Y-77398857D01*
X151206047Y-77446476D01*
X150872714Y-77446476D01*
X150682238Y-77398857D01*
X150587000Y-77303619D01*
X150539380Y-77208380D01*
X151539380Y-76351238D02*
X150539380Y-76351238D01*
X151539380Y-75779809D01*
X150539380Y-75779809D01*
X150539380Y-74351238D02*
X150539380Y-74256000D01*
X150587000Y-74160761D01*
X150634619Y-74113142D01*
X150729857Y-74065523D01*
X150920333Y-74017904D01*
X151158428Y-74017904D01*
X151348904Y-74065523D01*
X151444142Y-74113142D01*
X151491761Y-74160761D01*
X151539380Y-74256000D01*
X151539380Y-74351238D01*
X151491761Y-74446476D01*
X151444142Y-74494095D01*
X151348904Y-74541714D01*
X151158428Y-74589333D01*
X150920333Y-74589333D01*
X150729857Y-74541714D01*
X150634619Y-74494095D01*
X150587000Y-74446476D01*
X150539380Y-74351238D01*
X151444142Y-73589333D02*
X151491761Y-73541714D01*
X151539380Y-73589333D01*
X151491761Y-73636952D01*
X151444142Y-73589333D01*
X151539380Y-73589333D01*
X151539380Y-72589333D02*
X151539380Y-73160761D01*
X151539380Y-72875047D02*
X150539380Y-72875047D01*
X150682238Y-72970285D01*
X150777476Y-73065523D01*
X150825095Y-73160761D01*
X153530333Y-90136952D02*
X153482714Y-90184571D01*
X153339857Y-90279809D01*
X153244619Y-90327428D01*
X153101761Y-90375047D01*
X152863666Y-90422666D01*
X152673190Y-90422666D01*
X152435095Y-90375047D01*
X152292238Y-90327428D01*
X152197000Y-90279809D01*
X152054142Y-90184571D01*
X152006523Y-90136952D01*
X153101761Y-89327428D02*
X153149380Y-89422666D01*
X153149380Y-89613142D01*
X153101761Y-89708380D01*
X153054142Y-89756000D01*
X152958904Y-89803619D01*
X152673190Y-89803619D01*
X152577952Y-89756000D01*
X152530333Y-89708380D01*
X152482714Y-89613142D01*
X152482714Y-89422666D01*
X152530333Y-89327428D01*
X153530333Y-88994095D02*
X153482714Y-88946476D01*
X153339857Y-88851238D01*
X153244619Y-88803619D01*
X153101761Y-88756000D01*
X152863666Y-88708380D01*
X152673190Y-88708380D01*
X152435095Y-88756000D01*
X152292238Y-88803619D01*
X152197000Y-88851238D01*
X152054142Y-88946476D01*
X152006523Y-88994095D01*
X152244619Y-87517904D02*
X152197000Y-87470285D01*
X152149380Y-87375047D01*
X152149380Y-87136952D01*
X152197000Y-87041714D01*
X152244619Y-86994095D01*
X152339857Y-86946476D01*
X152435095Y-86946476D01*
X152577952Y-86994095D01*
X153149380Y-87565523D01*
X153149380Y-86946476D01*
X152149380Y-86327428D02*
X152149380Y-86232190D01*
X152197000Y-86136952D01*
X152244619Y-86089333D01*
X152339857Y-86041714D01*
X152530333Y-85994095D01*
X152768428Y-85994095D01*
X152958904Y-86041714D01*
X153054142Y-86089333D01*
X153101761Y-86136952D01*
X153149380Y-86232190D01*
X153149380Y-86327428D01*
X153101761Y-86422666D01*
X153054142Y-86470285D01*
X152958904Y-86517904D01*
X152768428Y-86565523D01*
X152530333Y-86565523D01*
X152339857Y-86517904D01*
X152244619Y-86470285D01*
X152197000Y-86422666D01*
X152149380Y-86327428D01*
X152244619Y-85613142D02*
X152197000Y-85565523D01*
X152149380Y-85470285D01*
X152149380Y-85232190D01*
X152197000Y-85136952D01*
X152244619Y-85089333D01*
X152339857Y-85041714D01*
X152435095Y-85041714D01*
X152577952Y-85089333D01*
X153149380Y-85660761D01*
X153149380Y-85041714D01*
X153149380Y-84089333D02*
X153149380Y-84660761D01*
X153149380Y-84375047D02*
X152149380Y-84375047D01*
X152292238Y-84470285D01*
X152387476Y-84565523D01*
X152435095Y-84660761D01*
X152482714Y-82898857D02*
X153482714Y-82898857D01*
X152530333Y-82898857D02*
X152482714Y-82803619D01*
X152482714Y-82613142D01*
X152530333Y-82517904D01*
X152577952Y-82470285D01*
X152673190Y-82422666D01*
X152958904Y-82422666D01*
X153054142Y-82470285D01*
X153101761Y-82517904D01*
X153149380Y-82613142D01*
X153149380Y-82803619D01*
X153101761Y-82898857D01*
X153149380Y-81994095D02*
X152482714Y-81994095D01*
X152149380Y-81994095D02*
X152197000Y-82041714D01*
X152244619Y-81994095D01*
X152197000Y-81946476D01*
X152149380Y-81994095D01*
X152244619Y-81994095D01*
X152482714Y-81517904D02*
X153149380Y-81517904D01*
X152577952Y-81517904D02*
X152530333Y-81470285D01*
X152482714Y-81375047D01*
X152482714Y-81232190D01*
X152530333Y-81136952D01*
X152625571Y-81089333D01*
X153149380Y-81089333D01*
X153149380Y-80613142D02*
X152149380Y-80613142D01*
X152530333Y-80613142D02*
X152482714Y-80517904D01*
X152482714Y-80327428D01*
X152530333Y-80232190D01*
X152577952Y-80184571D01*
X152673190Y-80136952D01*
X152958904Y-80136952D01*
X153054142Y-80184571D01*
X153101761Y-80232190D01*
X153149380Y-80327428D01*
X153149380Y-80517904D01*
X153101761Y-80613142D01*
X153149380Y-79279809D02*
X152625571Y-79279809D01*
X152530333Y-79327428D01*
X152482714Y-79422666D01*
X152482714Y-79613142D01*
X152530333Y-79708380D01*
X153101761Y-79279809D02*
X153149380Y-79375047D01*
X153149380Y-79613142D01*
X153101761Y-79708380D01*
X153006523Y-79756000D01*
X152911285Y-79756000D01*
X152816047Y-79708380D01*
X152768428Y-79613142D01*
X152768428Y-79375047D01*
X152720809Y-79279809D01*
X153149380Y-78660761D02*
X153101761Y-78756000D01*
X153006523Y-78803619D01*
X152149380Y-78803619D01*
X153149380Y-78136952D02*
X153101761Y-78232190D01*
X153006523Y-78279809D01*
X152149380Y-78279809D01*
X152768428Y-77756000D02*
X152768428Y-76994095D01*
X152482714Y-76517904D02*
X153482714Y-76517904D01*
X152530333Y-76517904D02*
X152482714Y-76422666D01*
X152482714Y-76232190D01*
X152530333Y-76136952D01*
X152577952Y-76089333D01*
X152673190Y-76041714D01*
X152958904Y-76041714D01*
X153054142Y-76089333D01*
X153101761Y-76136952D01*
X153149380Y-76232190D01*
X153149380Y-76422666D01*
X153101761Y-76517904D01*
X153149380Y-75470285D02*
X153101761Y-75565523D01*
X153054142Y-75613142D01*
X152958904Y-75660761D01*
X152673190Y-75660761D01*
X152577952Y-75613142D01*
X152530333Y-75565523D01*
X152482714Y-75470285D01*
X152482714Y-75327428D01*
X152530333Y-75232190D01*
X152577952Y-75184571D01*
X152673190Y-75136952D01*
X152958904Y-75136952D01*
X153054142Y-75184571D01*
X153101761Y-75232190D01*
X153149380Y-75327428D01*
X153149380Y-75470285D01*
X152482714Y-74803619D02*
X153149380Y-74613142D01*
X152673190Y-74422666D01*
X153149380Y-74232190D01*
X152482714Y-74041714D01*
X153101761Y-73279809D02*
X153149380Y-73375047D01*
X153149380Y-73565523D01*
X153101761Y-73660761D01*
X153006523Y-73708380D01*
X152625571Y-73708380D01*
X152530333Y-73660761D01*
X152482714Y-73565523D01*
X152482714Y-73375047D01*
X152530333Y-73279809D01*
X152625571Y-73232190D01*
X152720809Y-73232190D01*
X152816047Y-73708380D01*
X153149380Y-72803619D02*
X152482714Y-72803619D01*
X152673190Y-72803619D02*
X152577952Y-72756000D01*
X152530333Y-72708380D01*
X152482714Y-72613142D01*
X152482714Y-72517904D01*
X153054142Y-72184571D02*
X153101761Y-72136952D01*
X153149380Y-72184571D01*
X153101761Y-72232190D01*
X153054142Y-72184571D01*
X153149380Y-72184571D01*
X153101761Y-71279809D02*
X153149380Y-71375047D01*
X153149380Y-71565523D01*
X153101761Y-71660761D01*
X153054142Y-71708380D01*
X152958904Y-71756000D01*
X152673190Y-71756000D01*
X152577952Y-71708380D01*
X152530333Y-71660761D01*
X152482714Y-71565523D01*
X152482714Y-71375047D01*
X152530333Y-71279809D01*
X153149380Y-70708380D02*
X153101761Y-70803619D01*
X153054142Y-70851238D01*
X152958904Y-70898857D01*
X152673190Y-70898857D01*
X152577952Y-70851238D01*
X152530333Y-70803619D01*
X152482714Y-70708380D01*
X152482714Y-70565523D01*
X152530333Y-70470285D01*
X152577952Y-70422666D01*
X152673190Y-70375047D01*
X152958904Y-70375047D01*
X153054142Y-70422666D01*
X153101761Y-70470285D01*
X153149380Y-70565523D01*
X153149380Y-70708380D01*
X153149380Y-69946476D02*
X152482714Y-69946476D01*
X152577952Y-69946476D02*
X152530333Y-69898857D01*
X152482714Y-69803619D01*
X152482714Y-69660761D01*
X152530333Y-69565523D01*
X152625571Y-69517904D01*
X153149380Y-69517904D01*
X152625571Y-69517904D02*
X152530333Y-69470285D01*
X152482714Y-69375047D01*
X152482714Y-69232190D01*
X152530333Y-69136952D01*
X152625571Y-69089333D01*
X153149380Y-69089333D01*
%TO.C,J4*%
X121586666Y-123912380D02*
X121586666Y-124626666D01*
X121539047Y-124769523D01*
X121443809Y-124864761D01*
X121300952Y-124912380D01*
X121205714Y-124912380D01*
X122491428Y-124245714D02*
X122491428Y-124912380D01*
X122253333Y-123864761D02*
X122015238Y-124579047D01*
X122634285Y-124579047D01*
%TO.C,U6*%
X140462095Y-109180380D02*
X140462095Y-109989904D01*
X140509714Y-110085142D01*
X140557333Y-110132761D01*
X140652571Y-110180380D01*
X140843047Y-110180380D01*
X140938285Y-110132761D01*
X140985904Y-110085142D01*
X141033523Y-109989904D01*
X141033523Y-109180380D01*
X141938285Y-109180380D02*
X141747809Y-109180380D01*
X141652571Y-109228000D01*
X141604952Y-109275619D01*
X141509714Y-109418476D01*
X141462095Y-109608952D01*
X141462095Y-109989904D01*
X141509714Y-110085142D01*
X141557333Y-110132761D01*
X141652571Y-110180380D01*
X141843047Y-110180380D01*
X141938285Y-110132761D01*
X141985904Y-110085142D01*
X142033523Y-109989904D01*
X142033523Y-109751809D01*
X141985904Y-109656571D01*
X141938285Y-109608952D01*
X141843047Y-109561333D01*
X141652571Y-109561333D01*
X141557333Y-109608952D01*
X141509714Y-109656571D01*
X141462095Y-109751809D01*
%TO.C,C3*%
X149201142Y-118022666D02*
X149248761Y-118070285D01*
X149296380Y-118213142D01*
X149296380Y-118308380D01*
X149248761Y-118451238D01*
X149153523Y-118546476D01*
X149058285Y-118594095D01*
X148867809Y-118641714D01*
X148724952Y-118641714D01*
X148534476Y-118594095D01*
X148439238Y-118546476D01*
X148344000Y-118451238D01*
X148296380Y-118308380D01*
X148296380Y-118213142D01*
X148344000Y-118070285D01*
X148391619Y-118022666D01*
X148296380Y-117689333D02*
X148296380Y-117070285D01*
X148677333Y-117403619D01*
X148677333Y-117260761D01*
X148724952Y-117165523D01*
X148772571Y-117117904D01*
X148867809Y-117070285D01*
X149105904Y-117070285D01*
X149201142Y-117117904D01*
X149248761Y-117165523D01*
X149296380Y-117260761D01*
X149296380Y-117546476D01*
X149248761Y-117641714D01*
X149201142Y-117689333D01*
%TO.C,JP1*%
X136834666Y-108970380D02*
X136834666Y-109684666D01*
X136787047Y-109827523D01*
X136691809Y-109922761D01*
X136548952Y-109970380D01*
X136453714Y-109970380D01*
X137310857Y-109970380D02*
X137310857Y-108970380D01*
X137691809Y-108970380D01*
X137787047Y-109018000D01*
X137834666Y-109065619D01*
X137882285Y-109160857D01*
X137882285Y-109303714D01*
X137834666Y-109398952D01*
X137787047Y-109446571D01*
X137691809Y-109494190D01*
X137310857Y-109494190D01*
X138834666Y-109970380D02*
X138263238Y-109970380D01*
X138548952Y-109970380D02*
X138548952Y-108970380D01*
X138453714Y-109113238D01*
X138358476Y-109208476D01*
X138263238Y-109256095D01*
%TO.C,U3*%
X95758095Y-97452380D02*
X95758095Y-98261904D01*
X95805714Y-98357142D01*
X95853333Y-98404761D01*
X95948571Y-98452380D01*
X96139047Y-98452380D01*
X96234285Y-98404761D01*
X96281904Y-98357142D01*
X96329523Y-98261904D01*
X96329523Y-97452380D01*
X96710476Y-97452380D02*
X97329523Y-97452380D01*
X96996190Y-97833333D01*
X97139047Y-97833333D01*
X97234285Y-97880952D01*
X97281904Y-97928571D01*
X97329523Y-98023809D01*
X97329523Y-98261904D01*
X97281904Y-98357142D01*
X97234285Y-98404761D01*
X97139047Y-98452380D01*
X96853333Y-98452380D01*
X96758095Y-98404761D01*
X96710476Y-98357142D01*
%TO.C,C1*%
X100778333Y-62623142D02*
X100730714Y-62670761D01*
X100587857Y-62718380D01*
X100492619Y-62718380D01*
X100349761Y-62670761D01*
X100254523Y-62575523D01*
X100206904Y-62480285D01*
X100159285Y-62289809D01*
X100159285Y-62146952D01*
X100206904Y-61956476D01*
X100254523Y-61861238D01*
X100349761Y-61766000D01*
X100492619Y-61718380D01*
X100587857Y-61718380D01*
X100730714Y-61766000D01*
X100778333Y-61813619D01*
X101730714Y-62718380D02*
X101159285Y-62718380D01*
X101445000Y-62718380D02*
X101445000Y-61718380D01*
X101349761Y-61861238D01*
X101254523Y-61956476D01*
X101159285Y-62004095D01*
%TO.C,U4*%
X95758095Y-65194380D02*
X95758095Y-66003904D01*
X95805714Y-66099142D01*
X95853333Y-66146761D01*
X95948571Y-66194380D01*
X96139047Y-66194380D01*
X96234285Y-66146761D01*
X96281904Y-66099142D01*
X96329523Y-66003904D01*
X96329523Y-65194380D01*
X97234285Y-65527714D02*
X97234285Y-66194380D01*
X96996190Y-65146761D02*
X96758095Y-65861047D01*
X97377142Y-65861047D01*
%TO.C,C2*%
X100163333Y-95262142D02*
X100115714Y-95309761D01*
X99972857Y-95357380D01*
X99877619Y-95357380D01*
X99734761Y-95309761D01*
X99639523Y-95214523D01*
X99591904Y-95119285D01*
X99544285Y-94928809D01*
X99544285Y-94785952D01*
X99591904Y-94595476D01*
X99639523Y-94500238D01*
X99734761Y-94405000D01*
X99877619Y-94357380D01*
X99972857Y-94357380D01*
X100115714Y-94405000D01*
X100163333Y-94452619D01*
X100544285Y-94452619D02*
X100591904Y-94405000D01*
X100687142Y-94357380D01*
X100925238Y-94357380D01*
X101020476Y-94405000D01*
X101068095Y-94452619D01*
X101115714Y-94547857D01*
X101115714Y-94643095D01*
X101068095Y-94785952D01*
X100496666Y-95357380D01*
X101115714Y-95357380D01*
%TO.C,R1*%
X147661333Y-97480380D02*
X147328000Y-97004190D01*
X147089904Y-97480380D02*
X147089904Y-96480380D01*
X147470857Y-96480380D01*
X147566095Y-96528000D01*
X147613714Y-96575619D01*
X147661333Y-96670857D01*
X147661333Y-96813714D01*
X147613714Y-96908952D01*
X147566095Y-96956571D01*
X147470857Y-97004190D01*
X147089904Y-97004190D01*
X148613714Y-97480380D02*
X148042285Y-97480380D01*
X148328000Y-97480380D02*
X148328000Y-96480380D01*
X148232761Y-96623238D01*
X148137523Y-96718476D01*
X148042285Y-96766095D01*
%TO.C,J1*%
X150316380Y-105489333D02*
X151030666Y-105489333D01*
X151173523Y-105536952D01*
X151268761Y-105632190D01*
X151316380Y-105775047D01*
X151316380Y-105870285D01*
X151316380Y-104489333D02*
X151316380Y-105060761D01*
X151316380Y-104775047D02*
X150316380Y-104775047D01*
X150459238Y-104870285D01*
X150554476Y-104965523D01*
X150602095Y-105060761D01*
%TO.C,D1*%
X142268904Y-95448380D02*
X142268904Y-94448380D01*
X142507000Y-94448380D01*
X142649857Y-94496000D01*
X142745095Y-94591238D01*
X142792714Y-94686476D01*
X142840333Y-94876952D01*
X142840333Y-95019809D01*
X142792714Y-95210285D01*
X142745095Y-95305523D01*
X142649857Y-95400761D01*
X142507000Y-95448380D01*
X142268904Y-95448380D01*
X143792714Y-95448380D02*
X143221285Y-95448380D01*
X143507000Y-95448380D02*
X143507000Y-94448380D01*
X143411761Y-94591238D01*
X143316523Y-94686476D01*
X143221285Y-94734095D01*
%TO.C,J3*%
X146458380Y-85931333D02*
X147172666Y-85931333D01*
X147315523Y-85978952D01*
X147410761Y-86074190D01*
X147458380Y-86217047D01*
X147458380Y-86312285D01*
X146458380Y-85550380D02*
X146458380Y-84931333D01*
X146839333Y-85264666D01*
X146839333Y-85121809D01*
X146886952Y-85026571D01*
X146934571Y-84978952D01*
X147029809Y-84931333D01*
X147267904Y-84931333D01*
X147363142Y-84978952D01*
X147410761Y-85026571D01*
X147458380Y-85121809D01*
X147458380Y-85407523D01*
X147410761Y-85502761D01*
X147363142Y-85550380D01*
%TO.C,J2*%
X146458380Y-71453333D02*
X147172666Y-71453333D01*
X147315523Y-71500952D01*
X147410761Y-71596190D01*
X147458380Y-71739047D01*
X147458380Y-71834285D01*
X146553619Y-71024761D02*
X146506000Y-70977142D01*
X146458380Y-70881904D01*
X146458380Y-70643809D01*
X146506000Y-70548571D01*
X146553619Y-70500952D01*
X146648857Y-70453333D01*
X146744095Y-70453333D01*
X146886952Y-70500952D01*
X147458380Y-71072380D01*
X147458380Y-70453333D01*
%TO.C,U5*%
X121158095Y-89368380D02*
X121158095Y-90177904D01*
X121205714Y-90273142D01*
X121253333Y-90320761D01*
X121348571Y-90368380D01*
X121539047Y-90368380D01*
X121634285Y-90320761D01*
X121681904Y-90273142D01*
X121729523Y-90177904D01*
X121729523Y-89368380D01*
X122681904Y-89368380D02*
X122205714Y-89368380D01*
X122158095Y-89844571D01*
X122205714Y-89796952D01*
X122300952Y-89749333D01*
X122539047Y-89749333D01*
X122634285Y-89796952D01*
X122681904Y-89844571D01*
X122729523Y-89939809D01*
X122729523Y-90177904D01*
X122681904Y-90273142D01*
X122634285Y-90320761D01*
X122539047Y-90368380D01*
X122300952Y-90368380D01*
X122205714Y-90320761D01*
X122158095Y-90273142D01*
X108333096Y-68437218D02*
X108252284Y-68464155D01*
X108171471Y-68544967D01*
X108117597Y-68652717D01*
X108117597Y-68760467D01*
X108144534Y-68841279D01*
X108225346Y-68975966D01*
X108306158Y-69056778D01*
X108440845Y-69137590D01*
X108521658Y-69164528D01*
X108629407Y-69164528D01*
X108737157Y-69110653D01*
X108791032Y-69056778D01*
X108844906Y-68949028D01*
X108844906Y-68895154D01*
X108656345Y-68706592D01*
X108548595Y-68814341D01*
X109141218Y-68706592D02*
X108575532Y-68140906D01*
X108791032Y-67925407D01*
X108871844Y-67898470D01*
X108925719Y-67898470D01*
X109006531Y-67925407D01*
X109087343Y-68006219D01*
X109114280Y-68087032D01*
X109114280Y-68140906D01*
X109087343Y-68221719D01*
X108871844Y-68437218D01*
X110003215Y-67844595D02*
X109679966Y-68167844D01*
X109841590Y-68006219D02*
X109275905Y-67440534D01*
X109302842Y-67575221D01*
X109302842Y-67682971D01*
X109275905Y-67763783D01*
X108433096Y-86227218D02*
X108352284Y-86254155D01*
X108271471Y-86334967D01*
X108217597Y-86442717D01*
X108217597Y-86550467D01*
X108244534Y-86631279D01*
X108325346Y-86765966D01*
X108406158Y-86846778D01*
X108540845Y-86927590D01*
X108621658Y-86954528D01*
X108729407Y-86954528D01*
X108837157Y-86900653D01*
X108891032Y-86846778D01*
X108944906Y-86739028D01*
X108944906Y-86685154D01*
X108756345Y-86496592D01*
X108648595Y-86604341D01*
X109241218Y-86496592D02*
X108675532Y-85930906D01*
X108891032Y-85715407D01*
X108971844Y-85688470D01*
X109025719Y-85688470D01*
X109106531Y-85715407D01*
X109187343Y-85796219D01*
X109214280Y-85877032D01*
X109214280Y-85930906D01*
X109187343Y-86011719D01*
X108971844Y-86227218D01*
X109483654Y-85122784D02*
X109375905Y-85230534D01*
X109348967Y-85311346D01*
X109348967Y-85365221D01*
X109375905Y-85499908D01*
X109456717Y-85634595D01*
X109672216Y-85850094D01*
X109753028Y-85877032D01*
X109806903Y-85877032D01*
X109887715Y-85850094D01*
X109995465Y-85742345D01*
X110022402Y-85661532D01*
X110022402Y-85607658D01*
X109995465Y-85526845D01*
X109860778Y-85392158D01*
X109779966Y-85365221D01*
X109726091Y-85365221D01*
X109645279Y-85392158D01*
X109537529Y-85499908D01*
X109510592Y-85580720D01*
X109510592Y-85634595D01*
X109537529Y-85715407D01*
X133842131Y-73874308D02*
X134192317Y-73524122D01*
X134219255Y-73928183D01*
X134300067Y-73847370D01*
X134380879Y-73820433D01*
X134434754Y-73820433D01*
X134515566Y-73847370D01*
X134650253Y-73982057D01*
X134677190Y-74062870D01*
X134677190Y-74116744D01*
X134650253Y-74197557D01*
X134488629Y-74359181D01*
X134407816Y-74386118D01*
X134353942Y-74386118D01*
X134353942Y-73362497D02*
X135108189Y-73739621D01*
X134731065Y-72985374D01*
X134865752Y-72850687D02*
X135215938Y-72500500D01*
X135242876Y-72904561D01*
X135323688Y-72823749D01*
X135404500Y-72796812D01*
X135458375Y-72796812D01*
X135539187Y-72823749D01*
X135673874Y-72958436D01*
X135700812Y-73039248D01*
X135700812Y-73093123D01*
X135673874Y-73173935D01*
X135512250Y-73335560D01*
X135431438Y-73362497D01*
X135377563Y-73362497D01*
X135943248Y-73012311D02*
X136374247Y-72581312D01*
X136158748Y-72096439D02*
X136347309Y-71907877D01*
X136724433Y-72123377D02*
X136455059Y-72392751D01*
X135889374Y-71827065D01*
X136158748Y-71557691D01*
X136966870Y-71880940D02*
X136401184Y-71315255D01*
X137290118Y-71557691D01*
X136724433Y-70992006D01*
X107863722Y-111896592D02*
X107782910Y-111923529D01*
X107702097Y-112004341D01*
X107648223Y-112112091D01*
X107648223Y-112219841D01*
X107675160Y-112300653D01*
X107755972Y-112435340D01*
X107836784Y-112516152D01*
X107971471Y-112596964D01*
X108052284Y-112623902D01*
X108160033Y-112623902D01*
X108267783Y-112570027D01*
X108321658Y-112516152D01*
X108375532Y-112408402D01*
X108375532Y-112354528D01*
X108186971Y-112165966D01*
X108079221Y-112273715D01*
X108671844Y-112165966D02*
X108106158Y-111600280D01*
X108321658Y-111384781D01*
X108402470Y-111357844D01*
X108456345Y-111357844D01*
X108537157Y-111384781D01*
X108617969Y-111465593D01*
X108644906Y-111546406D01*
X108644906Y-111600280D01*
X108617969Y-111681093D01*
X108402470Y-111896592D01*
X109533841Y-111303969D02*
X109210592Y-111627218D01*
X109372216Y-111465593D02*
X108806531Y-110899908D01*
X108833468Y-111034595D01*
X108833468Y-111142345D01*
X108806531Y-111223157D01*
X109641590Y-110441972D02*
X110018714Y-110819096D01*
X109291404Y-110361160D02*
X109560778Y-110899908D01*
X109910964Y-110549722D01*
X108533096Y-88737218D02*
X108452284Y-88764155D01*
X108371471Y-88844967D01*
X108317597Y-88952717D01*
X108317597Y-89060467D01*
X108344534Y-89141279D01*
X108425346Y-89275966D01*
X108506158Y-89356778D01*
X108640845Y-89437590D01*
X108721658Y-89464528D01*
X108829407Y-89464528D01*
X108937157Y-89410653D01*
X108991032Y-89356778D01*
X109044906Y-89249028D01*
X109044906Y-89195154D01*
X108856345Y-89006592D01*
X108748595Y-89114341D01*
X109341218Y-89006592D02*
X108775532Y-88440906D01*
X108991032Y-88225407D01*
X109071844Y-88198470D01*
X109125719Y-88198470D01*
X109206531Y-88225407D01*
X109287343Y-88306219D01*
X109314280Y-88387032D01*
X109314280Y-88440906D01*
X109287343Y-88521719D01*
X109071844Y-88737218D01*
X109287343Y-87929096D02*
X109664467Y-87551972D01*
X109987715Y-88360094D01*
X108406158Y-71014155D02*
X108325346Y-71041093D01*
X108244534Y-71121905D01*
X108190659Y-71229654D01*
X108190659Y-71337404D01*
X108217597Y-71418216D01*
X108298409Y-71552903D01*
X108379221Y-71633715D01*
X108513908Y-71714528D01*
X108594720Y-71741465D01*
X108702470Y-71741465D01*
X108810219Y-71687590D01*
X108864094Y-71633715D01*
X108917969Y-71525966D01*
X108917969Y-71472091D01*
X108729407Y-71283529D01*
X108621658Y-71391279D01*
X109214280Y-71283529D02*
X108648595Y-70717844D01*
X109537529Y-70960280D01*
X108971844Y-70394595D01*
X109806903Y-70690906D02*
X109241218Y-70125221D01*
X109375905Y-69990534D01*
X109483654Y-69936659D01*
X109591404Y-69936659D01*
X109672216Y-69963597D01*
X109806903Y-70044409D01*
X109887715Y-70125221D01*
X109968528Y-70259908D01*
X109995465Y-70340720D01*
X109995465Y-70448470D01*
X109941590Y-70556219D01*
X109806903Y-70690906D01*
X125824761Y-116439809D02*
X125939047Y-116477904D01*
X126129523Y-116477904D01*
X126205714Y-116439809D01*
X126243809Y-116401714D01*
X126281904Y-116325523D01*
X126281904Y-116249333D01*
X126243809Y-116173142D01*
X126205714Y-116135047D01*
X126129523Y-116096952D01*
X125977142Y-116058857D01*
X125900952Y-116020761D01*
X125862857Y-115982666D01*
X125824761Y-115906476D01*
X125824761Y-115830285D01*
X125862857Y-115754095D01*
X125900952Y-115716000D01*
X125977142Y-115677904D01*
X126167619Y-115677904D01*
X126281904Y-115716000D01*
X126548571Y-115677904D02*
X126739047Y-116477904D01*
X126891428Y-115906476D01*
X127043809Y-116477904D01*
X127234285Y-115677904D01*
X127539047Y-116477904D02*
X127539047Y-115677904D01*
X127729523Y-115677904D01*
X127843809Y-115716000D01*
X127920000Y-115792190D01*
X127958095Y-115868380D01*
X127996190Y-116020761D01*
X127996190Y-116135047D01*
X127958095Y-116287428D01*
X127920000Y-116363619D01*
X127843809Y-116439809D01*
X127729523Y-116477904D01*
X127539047Y-116477904D01*
X128339047Y-116477904D02*
X128339047Y-115677904D01*
X128872380Y-115677904D02*
X129024761Y-115677904D01*
X129100952Y-115716000D01*
X129177142Y-115792190D01*
X129215238Y-115944571D01*
X129215238Y-116211238D01*
X129177142Y-116363619D01*
X129100952Y-116439809D01*
X129024761Y-116477904D01*
X128872380Y-116477904D01*
X128796190Y-116439809D01*
X128720000Y-116363619D01*
X128681904Y-116211238D01*
X128681904Y-115944571D01*
X128720000Y-115792190D01*
X128796190Y-115716000D01*
X128872380Y-115677904D01*
X108433096Y-81147218D02*
X108352284Y-81174155D01*
X108271471Y-81254967D01*
X108217597Y-81362717D01*
X108217597Y-81470467D01*
X108244534Y-81551279D01*
X108325346Y-81685966D01*
X108406158Y-81766778D01*
X108540845Y-81847590D01*
X108621658Y-81874528D01*
X108729407Y-81874528D01*
X108837157Y-81820653D01*
X108891032Y-81766778D01*
X108944906Y-81659028D01*
X108944906Y-81605154D01*
X108756345Y-81416592D01*
X108648595Y-81524341D01*
X109241218Y-81416592D02*
X108675532Y-80850906D01*
X108891032Y-80635407D01*
X108971844Y-80608470D01*
X109025719Y-80608470D01*
X109106531Y-80635407D01*
X109187343Y-80716219D01*
X109214280Y-80797032D01*
X109214280Y-80850906D01*
X109187343Y-80931719D01*
X108971844Y-81147218D01*
X109510592Y-80015847D02*
X109241218Y-80285221D01*
X109483654Y-80581532D01*
X109483654Y-80527658D01*
X109510592Y-80446845D01*
X109645279Y-80312158D01*
X109726091Y-80285221D01*
X109779966Y-80285221D01*
X109860778Y-80312158D01*
X109995465Y-80446845D01*
X110022402Y-80527658D01*
X110022402Y-80581532D01*
X109995465Y-80662345D01*
X109860778Y-80797032D01*
X109779966Y-80823969D01*
X109726091Y-80823969D01*
X107763722Y-101736592D02*
X107682910Y-101763529D01*
X107602097Y-101844341D01*
X107548223Y-101952091D01*
X107548223Y-102059841D01*
X107575160Y-102140653D01*
X107655972Y-102275340D01*
X107736784Y-102356152D01*
X107871471Y-102436964D01*
X107952284Y-102463902D01*
X108060033Y-102463902D01*
X108167783Y-102410027D01*
X108221658Y-102356152D01*
X108275532Y-102248402D01*
X108275532Y-102194528D01*
X108086971Y-102005966D01*
X107979221Y-102113715D01*
X108571844Y-102005966D02*
X108006158Y-101440280D01*
X108221658Y-101224781D01*
X108302470Y-101197844D01*
X108356345Y-101197844D01*
X108437157Y-101224781D01*
X108517969Y-101305593D01*
X108544906Y-101386406D01*
X108544906Y-101440280D01*
X108517969Y-101521093D01*
X108302470Y-101736592D01*
X109433841Y-101143969D02*
X109110592Y-101467218D01*
X109272216Y-101305593D02*
X108706531Y-100739908D01*
X108733468Y-100874595D01*
X108733468Y-100982345D01*
X108706531Y-101063157D01*
X109972589Y-100605221D02*
X109649340Y-100928470D01*
X109810964Y-100766845D02*
X109245279Y-100201160D01*
X109272216Y-100335847D01*
X109272216Y-100443597D01*
X109245279Y-100524409D01*
X134017722Y-81162592D02*
X133936910Y-81189529D01*
X133856097Y-81270341D01*
X133802223Y-81378091D01*
X133802223Y-81485841D01*
X133829160Y-81566653D01*
X133909972Y-81701340D01*
X133990784Y-81782152D01*
X134125471Y-81862964D01*
X134206284Y-81889902D01*
X134314033Y-81889902D01*
X134421783Y-81836027D01*
X134475658Y-81782152D01*
X134529532Y-81674402D01*
X134529532Y-81620528D01*
X134340971Y-81431966D01*
X134233221Y-81539715D01*
X134825844Y-81431966D02*
X134260158Y-80866280D01*
X134475658Y-80650781D01*
X134556470Y-80623844D01*
X134610345Y-80623844D01*
X134691157Y-80650781D01*
X134771969Y-80731593D01*
X134798906Y-80812406D01*
X134798906Y-80866280D01*
X134771969Y-80947093D01*
X134556470Y-81162592D01*
X134852781Y-80381407D02*
X134852781Y-80327532D01*
X134879719Y-80246720D01*
X135014406Y-80112033D01*
X135095218Y-80085096D01*
X135149093Y-80085096D01*
X135229905Y-80112033D01*
X135283780Y-80165908D01*
X135337654Y-80273658D01*
X135337654Y-80920155D01*
X135687841Y-80569969D01*
X135687841Y-79923471D02*
X135607028Y-79950409D01*
X135553154Y-79950409D01*
X135472341Y-79923471D01*
X135445404Y-79896534D01*
X135418467Y-79815722D01*
X135418467Y-79761847D01*
X135445404Y-79681035D01*
X135553154Y-79573285D01*
X135633966Y-79546348D01*
X135687841Y-79546348D01*
X135768653Y-79573285D01*
X135795590Y-79600223D01*
X135822528Y-79681035D01*
X135822528Y-79734910D01*
X135795590Y-79815722D01*
X135687841Y-79923471D01*
X135660903Y-80004284D01*
X135660903Y-80058158D01*
X135687841Y-80138971D01*
X135795590Y-80246720D01*
X135876402Y-80273658D01*
X135930277Y-80273658D01*
X136011089Y-80246720D01*
X136118839Y-80138971D01*
X136145776Y-80058158D01*
X136145776Y-80004284D01*
X136118839Y-79923471D01*
X136011089Y-79815722D01*
X135930277Y-79788784D01*
X135876402Y-79788784D01*
X135795590Y-79815722D01*
X108406158Y-96414155D02*
X108325346Y-96441093D01*
X108244534Y-96521905D01*
X108190659Y-96629654D01*
X108190659Y-96737404D01*
X108217597Y-96818216D01*
X108298409Y-96952903D01*
X108379221Y-97033715D01*
X108513908Y-97114528D01*
X108594720Y-97141465D01*
X108702470Y-97141465D01*
X108810219Y-97087590D01*
X108864094Y-97033715D01*
X108917969Y-96925966D01*
X108917969Y-96872091D01*
X108729407Y-96683529D01*
X108621658Y-96791279D01*
X109214280Y-96683529D02*
X108648595Y-96117844D01*
X109537529Y-96360280D01*
X108971844Y-95794595D01*
X109806903Y-96090906D02*
X109241218Y-95525221D01*
X109375905Y-95390534D01*
X109483654Y-95336659D01*
X109591404Y-95336659D01*
X109672216Y-95363597D01*
X109806903Y-95444409D01*
X109887715Y-95525221D01*
X109968528Y-95659908D01*
X109995465Y-95740720D01*
X109995465Y-95848470D01*
X109941590Y-95956219D01*
X109806903Y-96090906D01*
X133809847Y-76406592D02*
X134160033Y-76056406D01*
X134186971Y-76460467D01*
X134267783Y-76379654D01*
X134348595Y-76352717D01*
X134402470Y-76352717D01*
X134483282Y-76379654D01*
X134617969Y-76514341D01*
X134644906Y-76595154D01*
X134644906Y-76649028D01*
X134617969Y-76729841D01*
X134456345Y-76891465D01*
X134375532Y-76918402D01*
X134321658Y-76918402D01*
X134321658Y-75894781D02*
X135075905Y-76271905D01*
X134698781Y-75517658D01*
X134833468Y-75382971D02*
X135183654Y-75032784D01*
X135210592Y-75436845D01*
X135291404Y-75356033D01*
X135372216Y-75329096D01*
X135426091Y-75329096D01*
X135506903Y-75356033D01*
X135641590Y-75490720D01*
X135668528Y-75571532D01*
X135668528Y-75625407D01*
X135641590Y-75706219D01*
X135479966Y-75867844D01*
X135399154Y-75894781D01*
X135345279Y-75894781D01*
X107909722Y-99196592D02*
X107828910Y-99223529D01*
X107748097Y-99304341D01*
X107694223Y-99412091D01*
X107694223Y-99519841D01*
X107721160Y-99600653D01*
X107801972Y-99735340D01*
X107882784Y-99816152D01*
X108017471Y-99896964D01*
X108098284Y-99923902D01*
X108206033Y-99923902D01*
X108313783Y-99870027D01*
X108367658Y-99816152D01*
X108421532Y-99708402D01*
X108421532Y-99654528D01*
X108232971Y-99465966D01*
X108125221Y-99573715D01*
X108717844Y-99465966D02*
X108152158Y-98900280D01*
X108367658Y-98684781D01*
X108448470Y-98657844D01*
X108502345Y-98657844D01*
X108583157Y-98684781D01*
X108663969Y-98765593D01*
X108690906Y-98846406D01*
X108690906Y-98900280D01*
X108663969Y-98981093D01*
X108448470Y-99196592D01*
X109579841Y-98603969D02*
X109256592Y-98927218D01*
X109418216Y-98765593D02*
X108852531Y-98199908D01*
X108879468Y-98334595D01*
X108879468Y-98442345D01*
X108852531Y-98523157D01*
X109364341Y-97688097D02*
X109418216Y-97634223D01*
X109499028Y-97607285D01*
X109552903Y-97607285D01*
X109633715Y-97634223D01*
X109768402Y-97715035D01*
X109903089Y-97849722D01*
X109983902Y-97984409D01*
X110010839Y-98065221D01*
X110010839Y-98119096D01*
X109983902Y-98199908D01*
X109930027Y-98253783D01*
X109849215Y-98280720D01*
X109795340Y-98280720D01*
X109714528Y-98253783D01*
X109579841Y-98172971D01*
X109445154Y-98038284D01*
X109364341Y-97903597D01*
X109337404Y-97822784D01*
X109337404Y-97768910D01*
X109364341Y-97688097D01*
X133873129Y-66443309D02*
X134627377Y-66820433D01*
X134250253Y-66066186D01*
X134896751Y-65958436D02*
X135004500Y-65904561D01*
X135058375Y-65904561D01*
X135139187Y-65931499D01*
X135220000Y-66012311D01*
X135246937Y-66093123D01*
X135246937Y-66146998D01*
X135220000Y-66227810D01*
X135004500Y-66443309D01*
X134438815Y-65877624D01*
X134627377Y-65689062D01*
X134708189Y-65662125D01*
X134762064Y-65662125D01*
X134842876Y-65689062D01*
X134896751Y-65742937D01*
X134923688Y-65823749D01*
X134923688Y-65877624D01*
X134896751Y-65958436D01*
X134708189Y-66146998D01*
X135004500Y-65311938D02*
X135462436Y-65769874D01*
X135543248Y-65796812D01*
X135597123Y-65796812D01*
X135677935Y-65769874D01*
X135785685Y-65662125D01*
X135812622Y-65581312D01*
X135812622Y-65527438D01*
X135785685Y-65446625D01*
X135327749Y-64988690D01*
X136108934Y-65285001D02*
X136216683Y-65231126D01*
X136351370Y-65096439D01*
X136378308Y-65015627D01*
X136378308Y-64961752D01*
X136351370Y-64880940D01*
X136297496Y-64827065D01*
X136216683Y-64800128D01*
X136162809Y-64800128D01*
X136081996Y-64827065D01*
X135947309Y-64907877D01*
X135866497Y-64934815D01*
X135812622Y-64934815D01*
X135731810Y-64907877D01*
X135677935Y-64854003D01*
X135650998Y-64773190D01*
X135650998Y-64719316D01*
X135677935Y-64638503D01*
X135812622Y-64503816D01*
X135920372Y-64449942D01*
X134074788Y-79449773D02*
X134344162Y-79180399D01*
X134182537Y-79665272D02*
X133805414Y-78911025D01*
X134559661Y-79288149D01*
X134748223Y-79099587D02*
X134182537Y-78533902D01*
X134317224Y-78399215D01*
X134424974Y-78345340D01*
X134532723Y-78345340D01*
X134613536Y-78372277D01*
X134748223Y-78453089D01*
X134829035Y-78533902D01*
X134909847Y-78668589D01*
X134936784Y-78749401D01*
X134936784Y-78857150D01*
X134882910Y-78964900D01*
X134748223Y-79099587D01*
X135583282Y-78156778D02*
X135583282Y-78210653D01*
X135529407Y-78318402D01*
X135475532Y-78372277D01*
X135367783Y-78426152D01*
X135260033Y-78426152D01*
X135179221Y-78399215D01*
X135044534Y-78318402D01*
X134963722Y-78237590D01*
X134882910Y-78102903D01*
X134855972Y-78022091D01*
X134855972Y-77914341D01*
X134909847Y-77806592D01*
X134963722Y-77752717D01*
X135071471Y-77698842D01*
X135125346Y-77698842D01*
X135798781Y-78156778D02*
X136229780Y-77725780D01*
X135664094Y-77052345D02*
X136418341Y-77429468D01*
X136041218Y-76675221D01*
X137118714Y-76729096D02*
X136660778Y-76648284D01*
X136795465Y-77052345D02*
X136229780Y-76486659D01*
X136445279Y-76271160D01*
X136526091Y-76244223D01*
X136579966Y-76244223D01*
X136660778Y-76271160D01*
X136741590Y-76351972D01*
X136768528Y-76432784D01*
X136768528Y-76486659D01*
X136741590Y-76567471D01*
X136526091Y-76782971D01*
X137064839Y-76190348D02*
X137253401Y-76001786D01*
X137630524Y-76217285D02*
X137361150Y-76486659D01*
X136795465Y-75920974D01*
X137064839Y-75651600D01*
X137765211Y-75489975D02*
X137576650Y-75678537D01*
X137872961Y-75974849D02*
X137307276Y-75409163D01*
X137576650Y-75139789D01*
X108433096Y-65907218D02*
X108352284Y-65934155D01*
X108271471Y-66014967D01*
X108217597Y-66122717D01*
X108217597Y-66230467D01*
X108244534Y-66311279D01*
X108325346Y-66445966D01*
X108406158Y-66526778D01*
X108540845Y-66607590D01*
X108621658Y-66634528D01*
X108729407Y-66634528D01*
X108837157Y-66580653D01*
X108891032Y-66526778D01*
X108944906Y-66419028D01*
X108944906Y-66365154D01*
X108756345Y-66176592D01*
X108648595Y-66284341D01*
X109241218Y-66176592D02*
X108675532Y-65610906D01*
X108891032Y-65395407D01*
X108971844Y-65368470D01*
X109025719Y-65368470D01*
X109106531Y-65395407D01*
X109187343Y-65476219D01*
X109214280Y-65557032D01*
X109214280Y-65610906D01*
X109187343Y-65691719D01*
X108971844Y-65907218D01*
X109348967Y-64937471D02*
X109402842Y-64883597D01*
X109483654Y-64856659D01*
X109537529Y-64856659D01*
X109618341Y-64883597D01*
X109753028Y-64964409D01*
X109887715Y-65099096D01*
X109968528Y-65233783D01*
X109995465Y-65314595D01*
X109995465Y-65368470D01*
X109968528Y-65449282D01*
X109914653Y-65503157D01*
X109833841Y-65530094D01*
X109779966Y-65530094D01*
X109699154Y-65503157D01*
X109564467Y-65422345D01*
X109429780Y-65287658D01*
X109348967Y-65152971D01*
X109322030Y-65072158D01*
X109322030Y-65018284D01*
X109348967Y-64937471D01*
X108406158Y-83714155D02*
X108325346Y-83741093D01*
X108244534Y-83821905D01*
X108190659Y-83929654D01*
X108190659Y-84037404D01*
X108217597Y-84118216D01*
X108298409Y-84252903D01*
X108379221Y-84333715D01*
X108513908Y-84414528D01*
X108594720Y-84441465D01*
X108702470Y-84441465D01*
X108810219Y-84387590D01*
X108864094Y-84333715D01*
X108917969Y-84225966D01*
X108917969Y-84172091D01*
X108729407Y-83983529D01*
X108621658Y-84091279D01*
X109214280Y-83983529D02*
X108648595Y-83417844D01*
X109537529Y-83660280D01*
X108971844Y-83094595D01*
X109806903Y-83390906D02*
X109241218Y-82825221D01*
X109375905Y-82690534D01*
X109483654Y-82636659D01*
X109591404Y-82636659D01*
X109672216Y-82663597D01*
X109806903Y-82744409D01*
X109887715Y-82825221D01*
X109968528Y-82959908D01*
X109995465Y-83040720D01*
X109995465Y-83148470D01*
X109941590Y-83256219D01*
X109806903Y-83390906D01*
X108333096Y-73527218D02*
X108252284Y-73554155D01*
X108171471Y-73634967D01*
X108117597Y-73742717D01*
X108117597Y-73850467D01*
X108144534Y-73931279D01*
X108225346Y-74065966D01*
X108306158Y-74146778D01*
X108440845Y-74227590D01*
X108521658Y-74254528D01*
X108629407Y-74254528D01*
X108737157Y-74200653D01*
X108791032Y-74146778D01*
X108844906Y-74039028D01*
X108844906Y-73985154D01*
X108656345Y-73796592D01*
X108548595Y-73904341D01*
X109141218Y-73796592D02*
X108575532Y-73230906D01*
X108791032Y-73015407D01*
X108871844Y-72988470D01*
X108925719Y-72988470D01*
X109006531Y-73015407D01*
X109087343Y-73096219D01*
X109114280Y-73177032D01*
X109114280Y-73230906D01*
X109087343Y-73311719D01*
X108871844Y-73527218D01*
X109168155Y-72746033D02*
X109168155Y-72692158D01*
X109195093Y-72611346D01*
X109329780Y-72476659D01*
X109410592Y-72449722D01*
X109464467Y-72449722D01*
X109545279Y-72476659D01*
X109599154Y-72530534D01*
X109653028Y-72638284D01*
X109653028Y-73284781D01*
X110003215Y-72934595D01*
X108433096Y-91307218D02*
X108352284Y-91334155D01*
X108271471Y-91414967D01*
X108217597Y-91522717D01*
X108217597Y-91630467D01*
X108244534Y-91711279D01*
X108325346Y-91845966D01*
X108406158Y-91926778D01*
X108540845Y-92007590D01*
X108621658Y-92034528D01*
X108729407Y-92034528D01*
X108837157Y-91980653D01*
X108891032Y-91926778D01*
X108944906Y-91819028D01*
X108944906Y-91765154D01*
X108756345Y-91576592D01*
X108648595Y-91684341D01*
X109241218Y-91576592D02*
X108675532Y-91010906D01*
X108891032Y-90795407D01*
X108971844Y-90768470D01*
X109025719Y-90768470D01*
X109106531Y-90795407D01*
X109187343Y-90876219D01*
X109214280Y-90957032D01*
X109214280Y-91010906D01*
X109187343Y-91091719D01*
X108971844Y-91307218D01*
X109564467Y-90606845D02*
X109483654Y-90633783D01*
X109429780Y-90633783D01*
X109348967Y-90606845D01*
X109322030Y-90579908D01*
X109295093Y-90499096D01*
X109295093Y-90445221D01*
X109322030Y-90364409D01*
X109429780Y-90256659D01*
X109510592Y-90229722D01*
X109564467Y-90229722D01*
X109645279Y-90256659D01*
X109672216Y-90283597D01*
X109699154Y-90364409D01*
X109699154Y-90418284D01*
X109672216Y-90499096D01*
X109564467Y-90606845D01*
X109537529Y-90687658D01*
X109537529Y-90741532D01*
X109564467Y-90822345D01*
X109672216Y-90930094D01*
X109753028Y-90957032D01*
X109806903Y-90957032D01*
X109887715Y-90930094D01*
X109995465Y-90822345D01*
X110022402Y-90741532D01*
X110022402Y-90687658D01*
X109995465Y-90606845D01*
X109887715Y-90499096D01*
X109806903Y-90472158D01*
X109753028Y-90472158D01*
X109672216Y-90499096D01*
X107763722Y-104276592D02*
X107682910Y-104303529D01*
X107602097Y-104384341D01*
X107548223Y-104492091D01*
X107548223Y-104599841D01*
X107575160Y-104680653D01*
X107655972Y-104815340D01*
X107736784Y-104896152D01*
X107871471Y-104976964D01*
X107952284Y-105003902D01*
X108060033Y-105003902D01*
X108167783Y-104950027D01*
X108221658Y-104896152D01*
X108275532Y-104788402D01*
X108275532Y-104734528D01*
X108086971Y-104545966D01*
X107979221Y-104653715D01*
X108571844Y-104545966D02*
X108006158Y-103980280D01*
X108221658Y-103764781D01*
X108302470Y-103737844D01*
X108356345Y-103737844D01*
X108437157Y-103764781D01*
X108517969Y-103845593D01*
X108544906Y-103926406D01*
X108544906Y-103980280D01*
X108517969Y-104061093D01*
X108302470Y-104276592D01*
X109433841Y-103683969D02*
X109110592Y-104007218D01*
X109272216Y-103845593D02*
X108706531Y-103279908D01*
X108733468Y-103414595D01*
X108733468Y-103522345D01*
X108706531Y-103603157D01*
X109137529Y-102956659D02*
X109137529Y-102902784D01*
X109164467Y-102821972D01*
X109299154Y-102687285D01*
X109379966Y-102660348D01*
X109433841Y-102660348D01*
X109514653Y-102687285D01*
X109568528Y-102741160D01*
X109622402Y-102848910D01*
X109622402Y-103495407D01*
X109972589Y-103145221D01*
X107909722Y-114436592D02*
X107828910Y-114463529D01*
X107748097Y-114544341D01*
X107694223Y-114652091D01*
X107694223Y-114759841D01*
X107721160Y-114840653D01*
X107801972Y-114975340D01*
X107882784Y-115056152D01*
X108017471Y-115136964D01*
X108098284Y-115163902D01*
X108206033Y-115163902D01*
X108313783Y-115110027D01*
X108367658Y-115056152D01*
X108421532Y-114948402D01*
X108421532Y-114894528D01*
X108232971Y-114705966D01*
X108125221Y-114813715D01*
X108717844Y-114705966D02*
X108152158Y-114140280D01*
X108367658Y-113924781D01*
X108448470Y-113897844D01*
X108502345Y-113897844D01*
X108583157Y-113924781D01*
X108663969Y-114005593D01*
X108690906Y-114086406D01*
X108690906Y-114140280D01*
X108663969Y-114221093D01*
X108448470Y-114436592D01*
X109579841Y-113843969D02*
X109256592Y-114167218D01*
X109418216Y-114005593D02*
X108852531Y-113439908D01*
X108879468Y-113574595D01*
X108879468Y-113682345D01*
X108852531Y-113763157D01*
X109525966Y-112766473D02*
X109256592Y-113035847D01*
X109499028Y-113332158D01*
X109499028Y-113278284D01*
X109525966Y-113197471D01*
X109660653Y-113062784D01*
X109741465Y-113035847D01*
X109795340Y-113035847D01*
X109876152Y-113062784D01*
X110010839Y-113197471D01*
X110037776Y-113278284D01*
X110037776Y-113332158D01*
X110010839Y-113412971D01*
X109876152Y-113547658D01*
X109795340Y-113574595D01*
X109741465Y-113574595D01*
X133840473Y-68985966D02*
X134594720Y-69363089D01*
X134217597Y-68608842D01*
X134917969Y-68985966D02*
X135025719Y-68932091D01*
X135160406Y-68797404D01*
X135187343Y-68716592D01*
X135187343Y-68662717D01*
X135160406Y-68581905D01*
X135106531Y-68528030D01*
X135025719Y-68501093D01*
X134971844Y-68501093D01*
X134891032Y-68528030D01*
X134756345Y-68608842D01*
X134675532Y-68635780D01*
X134621658Y-68635780D01*
X134540845Y-68608842D01*
X134486971Y-68554967D01*
X134460033Y-68474155D01*
X134460033Y-68420280D01*
X134486971Y-68339468D01*
X134621658Y-68204781D01*
X134729407Y-68150906D01*
X135348967Y-68070094D02*
X135618341Y-68339468D01*
X134864094Y-67962345D02*
X135348967Y-68070094D01*
X135241218Y-67585221D01*
X135941590Y-67962345D02*
X136049340Y-67908470D01*
X136184027Y-67773783D01*
X136210964Y-67692971D01*
X136210964Y-67639096D01*
X136184027Y-67558284D01*
X136130152Y-67504409D01*
X136049340Y-67477471D01*
X135995465Y-67477471D01*
X135914653Y-67504409D01*
X135779966Y-67585221D01*
X135699154Y-67612158D01*
X135645279Y-67612158D01*
X135564467Y-67585221D01*
X135510592Y-67531346D01*
X135483654Y-67450534D01*
X135483654Y-67396659D01*
X135510592Y-67315847D01*
X135645279Y-67181160D01*
X135753028Y-67127285D01*
X108433096Y-76067218D02*
X108352284Y-76094155D01*
X108271471Y-76174967D01*
X108217597Y-76282717D01*
X108217597Y-76390467D01*
X108244534Y-76471279D01*
X108325346Y-76605966D01*
X108406158Y-76686778D01*
X108540845Y-76767590D01*
X108621658Y-76794528D01*
X108729407Y-76794528D01*
X108837157Y-76740653D01*
X108891032Y-76686778D01*
X108944906Y-76579028D01*
X108944906Y-76525154D01*
X108756345Y-76336592D01*
X108648595Y-76444341D01*
X109241218Y-76336592D02*
X108675532Y-75770906D01*
X108891032Y-75555407D01*
X108971844Y-75528470D01*
X109025719Y-75528470D01*
X109106531Y-75555407D01*
X109187343Y-75636219D01*
X109214280Y-75717032D01*
X109214280Y-75770906D01*
X109187343Y-75851719D01*
X108971844Y-76067218D01*
X109187343Y-75259096D02*
X109537529Y-74908910D01*
X109564467Y-75312971D01*
X109645279Y-75232158D01*
X109726091Y-75205221D01*
X109779966Y-75205221D01*
X109860778Y-75232158D01*
X109995465Y-75366845D01*
X110022402Y-75447658D01*
X110022402Y-75501532D01*
X109995465Y-75582345D01*
X109833841Y-75743969D01*
X109753028Y-75770906D01*
X109699154Y-75770906D01*
X108433096Y-93847218D02*
X108352284Y-93874155D01*
X108271471Y-93954967D01*
X108217597Y-94062717D01*
X108217597Y-94170467D01*
X108244534Y-94251279D01*
X108325346Y-94385966D01*
X108406158Y-94466778D01*
X108540845Y-94547590D01*
X108621658Y-94574528D01*
X108729407Y-94574528D01*
X108837157Y-94520653D01*
X108891032Y-94466778D01*
X108944906Y-94359028D01*
X108944906Y-94305154D01*
X108756345Y-94116592D01*
X108648595Y-94224341D01*
X109241218Y-94116592D02*
X108675532Y-93550906D01*
X108891032Y-93335407D01*
X108971844Y-93308470D01*
X109025719Y-93308470D01*
X109106531Y-93335407D01*
X109187343Y-93416219D01*
X109214280Y-93497032D01*
X109214280Y-93550906D01*
X109187343Y-93631719D01*
X108971844Y-93847218D01*
X109833841Y-93523969D02*
X109941590Y-93416219D01*
X109968528Y-93335407D01*
X109968528Y-93281532D01*
X109941590Y-93146845D01*
X109860778Y-93012158D01*
X109645279Y-92796659D01*
X109564467Y-92769722D01*
X109510592Y-92769722D01*
X109429780Y-92796659D01*
X109322030Y-92904409D01*
X109295093Y-92985221D01*
X109295093Y-93039096D01*
X109322030Y-93119908D01*
X109456717Y-93254595D01*
X109537529Y-93281532D01*
X109591404Y-93281532D01*
X109672216Y-93254595D01*
X109779966Y-93146845D01*
X109806903Y-93066033D01*
X109806903Y-93012158D01*
X109779966Y-92931346D01*
X108433096Y-78607218D02*
X108352284Y-78634155D01*
X108271471Y-78714967D01*
X108217597Y-78822717D01*
X108217597Y-78930467D01*
X108244534Y-79011279D01*
X108325346Y-79145966D01*
X108406158Y-79226778D01*
X108540845Y-79307590D01*
X108621658Y-79334528D01*
X108729407Y-79334528D01*
X108837157Y-79280653D01*
X108891032Y-79226778D01*
X108944906Y-79119028D01*
X108944906Y-79065154D01*
X108756345Y-78876592D01*
X108648595Y-78984341D01*
X109241218Y-78876592D02*
X108675532Y-78310906D01*
X108891032Y-78095407D01*
X108971844Y-78068470D01*
X109025719Y-78068470D01*
X109106531Y-78095407D01*
X109187343Y-78176219D01*
X109214280Y-78257032D01*
X109214280Y-78310906D01*
X109187343Y-78391719D01*
X108971844Y-78607218D01*
X109672216Y-77691346D02*
X110049340Y-78068470D01*
X109322030Y-77610534D02*
X109591404Y-78149282D01*
X109941590Y-77799096D01*
X114410476Y-116439809D02*
X114524761Y-116477904D01*
X114715238Y-116477904D01*
X114791428Y-116439809D01*
X114829523Y-116401714D01*
X114867619Y-116325523D01*
X114867619Y-116249333D01*
X114829523Y-116173142D01*
X114791428Y-116135047D01*
X114715238Y-116096952D01*
X114562857Y-116058857D01*
X114486666Y-116020761D01*
X114448571Y-115982666D01*
X114410476Y-115906476D01*
X114410476Y-115830285D01*
X114448571Y-115754095D01*
X114486666Y-115716000D01*
X114562857Y-115677904D01*
X114753333Y-115677904D01*
X114867619Y-115716000D01*
X115134285Y-115677904D02*
X115324761Y-116477904D01*
X115477142Y-115906476D01*
X115629523Y-116477904D01*
X115820000Y-115677904D01*
X116581904Y-116401714D02*
X116543809Y-116439809D01*
X116429523Y-116477904D01*
X116353333Y-116477904D01*
X116239047Y-116439809D01*
X116162857Y-116363619D01*
X116124761Y-116287428D01*
X116086666Y-116135047D01*
X116086666Y-116020761D01*
X116124761Y-115868380D01*
X116162857Y-115792190D01*
X116239047Y-115716000D01*
X116353333Y-115677904D01*
X116429523Y-115677904D01*
X116543809Y-115716000D01*
X116581904Y-115754095D01*
X117305714Y-116477904D02*
X116924761Y-116477904D01*
X116924761Y-115677904D01*
X117572380Y-116477904D02*
X117572380Y-115677904D01*
X118029523Y-116477904D02*
X117686666Y-116020761D01*
X118029523Y-115677904D02*
X117572380Y-116135047D01*
X134006158Y-71014155D02*
X133925346Y-71041093D01*
X133844534Y-71121905D01*
X133790659Y-71229654D01*
X133790659Y-71337404D01*
X133817597Y-71418216D01*
X133898409Y-71552903D01*
X133979221Y-71633715D01*
X134113908Y-71714528D01*
X134194720Y-71741465D01*
X134302470Y-71741465D01*
X134410219Y-71687590D01*
X134464094Y-71633715D01*
X134517969Y-71525966D01*
X134517969Y-71472091D01*
X134329407Y-71283529D01*
X134221658Y-71391279D01*
X134814280Y-71283529D02*
X134248595Y-70717844D01*
X135137529Y-70960280D01*
X134571844Y-70394595D01*
X135406903Y-70690906D02*
X134841218Y-70125221D01*
X134975905Y-69990534D01*
X135083654Y-69936659D01*
X135191404Y-69936659D01*
X135272216Y-69963597D01*
X135406903Y-70044409D01*
X135487715Y-70125221D01*
X135568528Y-70259908D01*
X135595465Y-70340720D01*
X135595465Y-70448470D01*
X135541590Y-70556219D01*
X135406903Y-70690906D01*
X107909722Y-106816592D02*
X107828910Y-106843529D01*
X107748097Y-106924341D01*
X107694223Y-107032091D01*
X107694223Y-107139841D01*
X107721160Y-107220653D01*
X107801972Y-107355340D01*
X107882784Y-107436152D01*
X108017471Y-107516964D01*
X108098284Y-107543902D01*
X108206033Y-107543902D01*
X108313783Y-107490027D01*
X108367658Y-107436152D01*
X108421532Y-107328402D01*
X108421532Y-107274528D01*
X108232971Y-107085966D01*
X108125221Y-107193715D01*
X108717844Y-107085966D02*
X108152158Y-106520280D01*
X108367658Y-106304781D01*
X108448470Y-106277844D01*
X108502345Y-106277844D01*
X108583157Y-106304781D01*
X108663969Y-106385593D01*
X108690906Y-106466406D01*
X108690906Y-106520280D01*
X108663969Y-106601093D01*
X108448470Y-106816592D01*
X109579841Y-106223969D02*
X109256592Y-106547218D01*
X109418216Y-106385593D02*
X108852531Y-105819908D01*
X108879468Y-105954595D01*
X108879468Y-106062345D01*
X108852531Y-106143157D01*
X109202717Y-105469722D02*
X109552903Y-105119536D01*
X109579841Y-105523597D01*
X109660653Y-105442784D01*
X109741465Y-105415847D01*
X109795340Y-105415847D01*
X109876152Y-105442784D01*
X110010839Y-105577471D01*
X110037776Y-105658284D01*
X110037776Y-105712158D01*
X110010839Y-105792971D01*
X109849215Y-105954595D01*
X109768402Y-105981532D01*
X109714528Y-105981532D01*
X108406158Y-109114155D02*
X108325346Y-109141093D01*
X108244534Y-109221905D01*
X108190659Y-109329654D01*
X108190659Y-109437404D01*
X108217597Y-109518216D01*
X108298409Y-109652903D01*
X108379221Y-109733715D01*
X108513908Y-109814528D01*
X108594720Y-109841465D01*
X108702470Y-109841465D01*
X108810219Y-109787590D01*
X108864094Y-109733715D01*
X108917969Y-109625966D01*
X108917969Y-109572091D01*
X108729407Y-109383529D01*
X108621658Y-109491279D01*
X109214280Y-109383529D02*
X108648595Y-108817844D01*
X109537529Y-109060280D01*
X108971844Y-108494595D01*
X109806903Y-108790906D02*
X109241218Y-108225221D01*
X109375905Y-108090534D01*
X109483654Y-108036659D01*
X109591404Y-108036659D01*
X109672216Y-108063597D01*
X109806903Y-108144409D01*
X109887715Y-108225221D01*
X109968528Y-108359908D01*
X109995465Y-108440720D01*
X109995465Y-108548470D01*
X109941590Y-108656219D01*
X109806903Y-108790906D01*
%TO.C,R2*%
X139025333Y-101432380D02*
X138692000Y-100956190D01*
X138453904Y-101432380D02*
X138453904Y-100432380D01*
X138834857Y-100432380D01*
X138930095Y-100480000D01*
X138977714Y-100527619D01*
X139025333Y-100622857D01*
X139025333Y-100765714D01*
X138977714Y-100860952D01*
X138930095Y-100908571D01*
X138834857Y-100956190D01*
X138453904Y-100956190D01*
X139406285Y-100527619D02*
X139453904Y-100480000D01*
X139549142Y-100432380D01*
X139787238Y-100432380D01*
X139882476Y-100480000D01*
X139930095Y-100527619D01*
X139977714Y-100622857D01*
X139977714Y-100718095D01*
X139930095Y-100860952D01*
X139358666Y-101432380D01*
X139977714Y-101432380D01*
D12*
%TO.C,J4*%
X123670000Y-120465000D02*
G75*
G03*
X123062413Y-120588615I0J-1555000D01*
G01*
X122238000Y-121412000D02*
G75*
G03*
X122237891Y-122627742I1432000J-608000D01*
G01*
X123062000Y-123452000D02*
G75*
G03*
X124277742Y-123452109I608000J1432000D01*
G01*
X125102000Y-122628000D02*
G75*
G03*
X125102109Y-121412258I-1432000J608000D01*
G01*
X124278000Y-120588000D02*
G75*
G03*
X123642989Y-120464507I-608000J-1432000D01*
G01*
X121725000Y-122020000D02*
G75*
G03*
X121725000Y-122020000I-1555000J0D01*
G01*
X125830000Y-119920000D02*
X118010000Y-119920000D01*
X125830000Y-125480000D02*
X118010000Y-125480000D01*
X125830000Y-118360000D02*
X118010000Y-118360000D01*
X125830000Y-125480000D02*
X125830000Y-118360000D01*
X118010000Y-125480000D02*
X118010000Y-118360000D01*
X126070000Y-119860000D02*
X126070000Y-118120000D01*
X126070000Y-118120000D02*
X124570000Y-118120000D01*
%TO.C,U6*%
X138959000Y-110694000D02*
X138959000Y-120974000D01*
X143459000Y-120974000D02*
X143459000Y-110694000D01*
X138959000Y-120974000D02*
X143459000Y-120974000D01*
X140209000Y-110694000D02*
X138959000Y-110694000D01*
X143459000Y-110694000D02*
X142209000Y-110694000D01*
X140209000Y-110694000D02*
G75*
G03*
X142209000Y-110694000I1000000J0D01*
G01*
%TO.C,C3*%
X147789000Y-115920000D02*
X147724000Y-115920000D01*
X149964000Y-112680000D02*
X149899000Y-112680000D01*
X149964000Y-112680000D02*
X149964000Y-115920000D01*
X147789000Y-112680000D02*
X147724000Y-112680000D01*
X149964000Y-115920000D02*
X149899000Y-115920000D01*
X147724000Y-112680000D02*
X147724000Y-115920000D01*
%TO.C,JP1*%
X136338000Y-105918000D02*
X136338000Y-103318000D01*
X138998000Y-105918000D02*
X138998000Y-103318000D01*
X138998000Y-103318000D02*
X136338000Y-103318000D01*
X138998000Y-107188000D02*
X138998000Y-108518000D01*
X138998000Y-108518000D02*
X137668000Y-108518000D01*
X138998000Y-105918000D02*
X136338000Y-105918000D01*
%TO.C,U3*%
X99965000Y-99000000D02*
X98715000Y-99000000D01*
X98715000Y-124520000D02*
X103215000Y-124520000D01*
X103215000Y-99000000D02*
X101965000Y-99000000D01*
X98715000Y-99000000D02*
X98715000Y-124520000D01*
X103215000Y-124520000D02*
X103215000Y-99000000D01*
X99965000Y-99000000D02*
G75*
G03*
X101965000Y-99000000I1000000J0D01*
G01*
%TO.C,C1*%
X99325000Y-63396000D02*
X99325000Y-63461000D01*
X102565000Y-65571000D02*
X102565000Y-65636000D01*
X102565000Y-63396000D02*
X102565000Y-63461000D01*
X99325000Y-63396000D02*
X102565000Y-63396000D01*
X99325000Y-65636000D02*
X102565000Y-65636000D01*
X99325000Y-65571000D02*
X99325000Y-65636000D01*
%TO.C,U4*%
X103215000Y-92262000D02*
X103215000Y-66742000D01*
X98715000Y-66742000D02*
X98715000Y-92262000D01*
X99965000Y-66742000D02*
X98715000Y-66742000D01*
X103215000Y-66742000D02*
X101965000Y-66742000D01*
X98715000Y-92262000D02*
X103215000Y-92262000D01*
X99965000Y-66742000D02*
G75*
G03*
X101965000Y-66742000I1000000J0D01*
G01*
%TO.C,J1001*%
X87695000Y-118175000D02*
X86365000Y-118175000D01*
X85095000Y-115575000D02*
X85095000Y-118175000D01*
X85095000Y-118175000D02*
X82495000Y-118175000D01*
X82495000Y-118175000D02*
X82495000Y-74875000D01*
X87695000Y-116845000D02*
X87695000Y-118175000D01*
X87695000Y-74875000D02*
X82495000Y-74875000D01*
X87695000Y-115575000D02*
X85095000Y-115575000D01*
X87695000Y-115575000D02*
X87695000Y-74875000D01*
%TO.C,C2*%
X98710000Y-98275000D02*
X101950000Y-98275000D01*
X101950000Y-98210000D02*
X101950000Y-98275000D01*
X98710000Y-98210000D02*
X98710000Y-98275000D01*
X101950000Y-96035000D02*
X101950000Y-96100000D01*
X98710000Y-96035000D02*
X101950000Y-96035000D01*
X98710000Y-96035000D02*
X98710000Y-96100000D01*
%TO.C,R1*%
X149748000Y-99980000D02*
X145908000Y-99980000D01*
X149748000Y-98140000D02*
X145908000Y-98140000D01*
%TO.C,J1*%
X142744000Y-101246000D02*
X142744000Y-109066000D01*
X149864000Y-109066000D02*
X142744000Y-109066000D01*
X149864000Y-101246000D02*
X142744000Y-101246000D01*
X144244000Y-101006000D02*
X142504000Y-101006000D01*
X149864000Y-101246000D02*
X149864000Y-109066000D01*
X142504000Y-101006000D02*
X142504000Y-102506000D01*
X144304000Y-101246000D02*
X144304000Y-109066000D01*
X147012000Y-101974000D02*
G75*
G03*
X145796258Y-101973891I-607999J-1432003D01*
G01*
X144972000Y-102798000D02*
G75*
G03*
X144848507Y-103433011I1431988J-607998D01*
G01*
X145796000Y-104838000D02*
G75*
G03*
X147011742Y-104838109I607999J1432003D01*
G01*
X144849000Y-103406000D02*
G75*
G03*
X144972615Y-104013587I1554997J-1D01*
G01*
X147836000Y-104014000D02*
G75*
G03*
X147836109Y-102798258I-1432003J607999D01*
G01*
X147959000Y-106906000D02*
G75*
G03*
X147959000Y-106906000I-1555000J0D01*
G01*
%TO.C,D1*%
X140907000Y-93736000D02*
X137487000Y-93736000D01*
X140667000Y-96256000D02*
X140667000Y-96076000D01*
X140667000Y-93916000D02*
X140667000Y-93736000D01*
X140907000Y-96256000D02*
X137487000Y-96256000D01*
X140787000Y-93916000D02*
X140787000Y-93736000D01*
X137487000Y-96256000D02*
X137487000Y-96091000D01*
X140907000Y-96256000D02*
X140907000Y-96076000D01*
X137487000Y-93901000D02*
X137487000Y-93736000D01*
X140907000Y-93916000D02*
X140907000Y-93736000D01*
X140787000Y-96256000D02*
X140787000Y-96076000D01*
%TO.C,J3*%
X143806000Y-78878000D02*
X146216000Y-78878000D01*
X143386000Y-91888000D02*
X143386000Y-92018000D01*
X143386000Y-92018000D02*
X145916000Y-92018000D01*
X141576000Y-79178000D02*
X140596000Y-79178000D01*
X140596000Y-81678000D02*
X139096000Y-81678000D01*
X140596000Y-89518000D02*
X140596000Y-92018000D01*
X141576000Y-91888000D02*
X143386000Y-91888000D01*
X140596000Y-92018000D02*
X141576000Y-92018000D01*
X143386000Y-79178000D02*
X143386000Y-79308000D01*
X139096000Y-89518000D02*
X140596000Y-89518000D01*
X145916000Y-92018000D02*
X145916000Y-79178000D01*
X146216000Y-78878000D02*
X146216000Y-81288000D01*
X141576000Y-92018000D02*
X141576000Y-91888000D01*
X141576000Y-79308000D02*
X141576000Y-79178000D01*
X143386000Y-79308000D02*
X141576000Y-79308000D01*
X140596000Y-79178000D02*
X140596000Y-81678000D01*
X145916000Y-79178000D02*
X143386000Y-79178000D01*
X139096000Y-81678000D02*
X139096000Y-89518000D01*
%TO.C,J2*%
X141576000Y-77410000D02*
X143386000Y-77410000D01*
X140596000Y-67200000D02*
X139096000Y-67200000D01*
X143386000Y-64700000D02*
X143386000Y-64830000D01*
X139096000Y-75040000D02*
X140596000Y-75040000D01*
X143386000Y-64830000D02*
X141576000Y-64830000D01*
X140596000Y-64700000D02*
X140596000Y-67200000D01*
X140596000Y-77540000D02*
X141576000Y-77540000D01*
X143386000Y-77540000D02*
X145916000Y-77540000D01*
X145916000Y-64700000D02*
X143386000Y-64700000D01*
X139096000Y-67200000D02*
X139096000Y-75040000D01*
X146216000Y-64400000D02*
X146216000Y-66810000D01*
X143806000Y-64400000D02*
X146216000Y-64400000D01*
X141576000Y-64700000D02*
X140596000Y-64700000D01*
X141576000Y-64830000D02*
X141576000Y-64700000D01*
X140596000Y-75040000D02*
X140596000Y-77540000D01*
X141576000Y-77540000D02*
X141576000Y-77410000D01*
X143386000Y-77410000D02*
X143386000Y-77540000D01*
X145916000Y-77540000D02*
X145916000Y-64700000D01*
%TO.C,U5*%
X132420000Y-66816000D02*
X132420000Y-67216000D01*
X111420000Y-71916000D02*
X111420000Y-72316000D01*
X111420000Y-67083000D02*
X114427000Y-67083000D01*
X132420000Y-115416000D02*
X125620000Y-115416000D01*
X111420000Y-105016000D02*
X111420000Y-105416000D01*
X132420000Y-79516000D02*
X132420000Y-79916000D01*
X114427000Y-67083000D02*
X114427000Y-64416000D01*
X111420000Y-107516000D02*
X111420000Y-107916000D01*
X132420000Y-99916000D02*
X132420000Y-100316000D01*
X111420000Y-74516000D02*
X111420000Y-74916000D01*
X132420000Y-69416000D02*
X132420000Y-69816000D01*
X111420000Y-69416000D02*
X111420000Y-69816000D01*
X118220000Y-115416000D02*
X111420000Y-115416000D01*
X132420000Y-64416000D02*
X132420000Y-64716000D01*
X132420000Y-89716000D02*
X132420000Y-90116000D01*
X132420000Y-94816000D02*
X132420000Y-95216000D01*
X132420000Y-102416000D02*
X132420000Y-102816000D01*
X123020000Y-115416000D02*
X123420000Y-115416000D01*
X111420000Y-66816000D02*
X111420000Y-67216000D01*
X132420000Y-87216000D02*
X132420000Y-87616000D01*
X132420000Y-110016000D02*
X132420000Y-110416000D01*
X132420000Y-77016000D02*
X132420000Y-77416000D01*
X132420000Y-74516000D02*
X132420000Y-74916000D01*
X120420000Y-115416000D02*
X120820000Y-115416000D01*
X111420000Y-87216000D02*
X111420000Y-87616000D01*
X132420000Y-71916000D02*
X132420000Y-72316000D01*
X132420000Y-84616000D02*
X132420000Y-85016000D01*
X132420000Y-112616000D02*
X132420000Y-113016000D01*
X132420000Y-97316000D02*
X132420000Y-97716000D01*
X111420000Y-97316000D02*
X111420000Y-97716000D01*
X111420000Y-64416000D02*
X111420000Y-64716000D01*
X111420000Y-89716000D02*
X111420000Y-90116000D01*
X132420000Y-105016000D02*
X132420000Y-105416000D01*
X111420000Y-82116000D02*
X111420000Y-82516000D01*
X111420000Y-112616000D02*
X111420000Y-113016000D01*
X132420000Y-82116000D02*
X132420000Y-82516000D01*
X111420000Y-77016000D02*
X111420000Y-77416000D01*
X111420000Y-84616000D02*
X111420000Y-85016000D01*
X111420000Y-79516000D02*
X111420000Y-79916000D01*
X111420000Y-102416000D02*
X111420000Y-102816000D01*
X111420000Y-99916000D02*
X111420000Y-100316000D01*
X111420000Y-64416000D02*
X132420000Y-64416000D01*
X111420000Y-110016000D02*
X111420000Y-110416000D01*
X132420000Y-92216000D02*
X132420000Y-92616000D01*
X111420000Y-94816000D02*
X111420000Y-95216000D01*
X111420000Y-92216000D02*
X111420000Y-92616000D01*
X132420000Y-107516000D02*
X132420000Y-107916000D01*
%TO.C,R2*%
X141112000Y-98140000D02*
X137272000Y-98140000D01*
X141112000Y-99980000D02*
X137272000Y-99980000D01*
%TD*%
M02*
