%TF.GenerationSoftware,KiCad,Pcbnew,(5.99.0-13096-g792a8dca9d)*%
%TF.CreationDate,2021-11-07T07:43:55+01:00*%
%TF.ProjectId,wpcpowermon,77706370-6f77-4657-926d-6f6e2e6b6963,rev?*%
%TF.SameCoordinates,Original*%
%TF.FileFunction,Soldermask,Top*%
%TF.FilePolarity,Negative*%
%FSLAX46Y46*%
G04 Gerber Fmt 4.6, Leading zero omitted, Abs format (unit mm)*
G04 Created by KiCad (PCBNEW (5.99.0-13096-g792a8dca9d)) date 2021-11-07 07:43:55*
%MOMM*%
%LPD*%
G01*
G04 APERTURE LIST*
G04 Aperture macros list*
%AMRoundRect*
0 Rectangle with rounded corners*
0 $1 Rounding radius*
0 $2 $3 $4 $5 $6 $7 $8 $9 X,Y pos of 4 corners*
0 Add a 4 corners polygon primitive as box body*
4,1,4,$2,$3,$4,$5,$6,$7,$8,$9,$2,$3,0*
0 Add four circle primitives for the rounded corners*
1,1,$1+$1,$2,$3*
1,1,$1+$1,$4,$5*
1,1,$1+$1,$6,$7*
1,1,$1+$1,$8,$9*
0 Add four rect primitives between the rounded corners*
20,1,$1+$1,$2,$3,$4,$5,0*
20,1,$1+$1,$4,$5,$6,$7,0*
20,1,$1+$1,$6,$7,$8,$9,0*
20,1,$1+$1,$8,$9,$2,$3,0*%
G04 Aperture macros list end*
%ADD10R,2.400000X2.400000*%
%ADD11C,2.400000*%
%ADD12R,2.400000X1.600000*%
%ADD13O,2.400000X1.600000*%
%ADD14C,1.600000*%
%ADD15R,1.700000X1.700000*%
%ADD16O,1.700000X1.700000*%
%ADD17C,1.400000*%
%ADD18O,1.400000X1.400000*%
%ADD19R,1.800000X1.800000*%
%ADD20C,1.800000*%
%ADD21RoundRect,0.250000X-0.620000X0.620000X-0.620000X-0.620000X0.620000X-0.620000X0.620000X0.620000X0*%
%ADD22C,1.740000*%
%ADD23O,1.500000X1.500000*%
%ADD24O,1.800000X1.800000*%
%ADD25R,3.500000X1.700000*%
%ADD26R,1.700000X3.500000*%
G04 APERTURE END LIST*
D10*
%TO.C,J4*%
X123670000Y-122020000D03*
D11*
X120170000Y-122020000D03*
%TD*%
D12*
%TO.C,U6*%
X137399000Y-112024000D03*
D13*
X137399000Y-114564000D03*
X137399000Y-117104000D03*
X137399000Y-119644000D03*
X145019000Y-119644000D03*
X145019000Y-117104000D03*
X145019000Y-114564000D03*
X145019000Y-112024000D03*
%TD*%
D14*
%TO.C,C3*%
X148844000Y-113050000D03*
X148844000Y-115550000D03*
%TD*%
D15*
%TO.C,JP1*%
X137668000Y-107188000D03*
D16*
X137668000Y-104648000D03*
%TD*%
D12*
%TO.C,U3*%
X97155000Y-100330000D03*
D13*
X97155000Y-102870000D03*
X97155000Y-105410000D03*
X97155000Y-107950000D03*
X97155000Y-110490000D03*
X97155000Y-113030000D03*
X97155000Y-115570000D03*
X97155000Y-118110000D03*
X97155000Y-120650000D03*
X97155000Y-123190000D03*
X104775000Y-123190000D03*
X104775000Y-120650000D03*
X104775000Y-118110000D03*
X104775000Y-115570000D03*
X104775000Y-113030000D03*
X104775000Y-110490000D03*
X104775000Y-107950000D03*
X104775000Y-105410000D03*
X104775000Y-102870000D03*
X104775000Y-100330000D03*
%TD*%
D14*
%TO.C,C1*%
X99695000Y-64516000D03*
X102195000Y-64516000D03*
%TD*%
D12*
%TO.C,U4*%
X97155000Y-68072000D03*
D13*
X97155000Y-70612000D03*
X97155000Y-73152000D03*
X97155000Y-75692000D03*
X97155000Y-78232000D03*
X97155000Y-80772000D03*
X97155000Y-83312000D03*
X97155000Y-85852000D03*
X97155000Y-88392000D03*
X97155000Y-90932000D03*
X104775000Y-90932000D03*
X104775000Y-88392000D03*
X104775000Y-85852000D03*
X104775000Y-83312000D03*
X104775000Y-80772000D03*
X104775000Y-78232000D03*
X104775000Y-75692000D03*
X104775000Y-73152000D03*
X104775000Y-70612000D03*
X104775000Y-68072000D03*
%TD*%
D15*
%TO.C,J1001*%
X86365000Y-116845000D03*
D16*
X83825000Y-116845000D03*
X86365000Y-114305000D03*
X83825000Y-114305000D03*
X86365000Y-111765000D03*
X83825000Y-111765000D03*
X86365000Y-109225000D03*
X83825000Y-109225000D03*
X86365000Y-106685000D03*
X83825000Y-106685000D03*
X86365000Y-104145000D03*
X83825000Y-104145000D03*
X86365000Y-101605000D03*
X83825000Y-101605000D03*
X86365000Y-99065000D03*
X83825000Y-99065000D03*
X86365000Y-96525000D03*
X83825000Y-96525000D03*
X86365000Y-93985000D03*
X83825000Y-93985000D03*
X86365000Y-91445000D03*
X83825000Y-91445000D03*
X86365000Y-88905000D03*
X83825000Y-88905000D03*
X86365000Y-86365000D03*
X83825000Y-86365000D03*
X86365000Y-83825000D03*
X83825000Y-83825000D03*
X86365000Y-81285000D03*
X83825000Y-81285000D03*
X86365000Y-78745000D03*
X83825000Y-78745000D03*
X86365000Y-76205000D03*
X83825000Y-76205000D03*
%TD*%
D14*
%TO.C,C2*%
X99080000Y-97155000D03*
X101580000Y-97155000D03*
%TD*%
D17*
%TO.C,R1*%
X150368000Y-99060000D03*
D18*
X145288000Y-99060000D03*
%TD*%
D10*
%TO.C,J1*%
X146404000Y-103406000D03*
D11*
X146404000Y-106906000D03*
%TD*%
D19*
%TO.C,D1*%
X140467000Y-94996000D03*
D20*
X137927000Y-94996000D03*
%TD*%
D21*
%TO.C,J3*%
X143256000Y-81788000D03*
D22*
X143256000Y-84328000D03*
X143256000Y-86868000D03*
X143256000Y-89408000D03*
%TD*%
D21*
%TO.C,J2*%
X143256000Y-67310000D03*
D22*
X143256000Y-69850000D03*
X143256000Y-72390000D03*
X143256000Y-74930000D03*
%TD*%
D23*
%TO.C,U5*%
X124345000Y-68946000D03*
D24*
X124645000Y-65916000D03*
D23*
X119495000Y-68946000D03*
D24*
X119195000Y-65916000D03*
D25*
X112130000Y-65786000D03*
D16*
X113030000Y-65786000D03*
X113030000Y-68326000D03*
D25*
X112130000Y-68326000D03*
D15*
X113030000Y-70866000D03*
D25*
X112130000Y-70866000D03*
X112130000Y-73406000D03*
D16*
X113030000Y-73406000D03*
D25*
X112130000Y-75946000D03*
D16*
X113030000Y-75946000D03*
X113030000Y-78486000D03*
D25*
X112130000Y-78486000D03*
X112130000Y-81026000D03*
D16*
X113030000Y-81026000D03*
D25*
X112130000Y-83566000D03*
D15*
X113030000Y-83566000D03*
D16*
X113030000Y-86106000D03*
D25*
X112130000Y-86106000D03*
X112130000Y-88646000D03*
D16*
X113030000Y-88646000D03*
X113030000Y-91186000D03*
D25*
X112130000Y-91186000D03*
X112130000Y-93726000D03*
D16*
X113030000Y-93726000D03*
D25*
X112130000Y-96266000D03*
D15*
X113030000Y-96266000D03*
D16*
X113030000Y-98806000D03*
D25*
X112130000Y-98806000D03*
X112130000Y-101346000D03*
D16*
X113030000Y-101346000D03*
D25*
X112130000Y-103886000D03*
D16*
X113030000Y-103886000D03*
X113030000Y-106426000D03*
D25*
X112130000Y-106426000D03*
X112130000Y-108966000D03*
D15*
X113030000Y-108966000D03*
D25*
X112130000Y-111506000D03*
D16*
X113030000Y-111506000D03*
D25*
X112130000Y-114046000D03*
D16*
X113030000Y-114046000D03*
D25*
X131710000Y-114046000D03*
D16*
X130810000Y-114046000D03*
D25*
X131710000Y-111506000D03*
D16*
X130810000Y-111506000D03*
D25*
X131710000Y-108966000D03*
D15*
X130810000Y-108966000D03*
D16*
X130810000Y-106426000D03*
D25*
X131710000Y-106426000D03*
D16*
X130810000Y-103886000D03*
D25*
X131710000Y-103886000D03*
D16*
X130810000Y-101346000D03*
D25*
X131710000Y-101346000D03*
X131710000Y-98806000D03*
D16*
X130810000Y-98806000D03*
D15*
X130810000Y-96266000D03*
D25*
X131710000Y-96266000D03*
X131710000Y-93726000D03*
D16*
X130810000Y-93726000D03*
X130810000Y-91186000D03*
D25*
X131710000Y-91186000D03*
D16*
X130810000Y-88646000D03*
D25*
X131710000Y-88646000D03*
D16*
X130810000Y-86106000D03*
D25*
X131710000Y-86106000D03*
D15*
X130810000Y-83566000D03*
D25*
X131710000Y-83566000D03*
D16*
X130810000Y-81026000D03*
D25*
X131710000Y-81026000D03*
X131710000Y-78486000D03*
D16*
X130810000Y-78486000D03*
D25*
X131710000Y-75946000D03*
D16*
X130810000Y-75946000D03*
X130810000Y-73406000D03*
D25*
X131710000Y-73406000D03*
X131710000Y-70866000D03*
D15*
X130810000Y-70866000D03*
D16*
X130810000Y-68326000D03*
D25*
X131710000Y-68326000D03*
D16*
X130810000Y-65786000D03*
D25*
X131710000Y-65786000D03*
D16*
X119380000Y-113816000D03*
D26*
X119380000Y-114716000D03*
X121920000Y-114716000D03*
D15*
X121920000Y-113816000D03*
D26*
X124460000Y-114716000D03*
D16*
X124460000Y-113816000D03*
%TD*%
D17*
%TO.C,R2*%
X141732000Y-99060000D03*
D18*
X136652000Y-99060000D03*
%TD*%
M02*
